<svg width="64" height="64" viewBox="0 0 64 64" fill="none" xmlns="http://www.w3.org/2000/svg">
<path d="M52 61H15L11 29H56L52 61Z" fill="#3EA7FF"/>
<path d="M44.4763 46C44.6145 46.3511 44.7901 46.6864 45 47V61H35V47C35.5925 46.1117 35.9088 45.0678 35.9088 44C35.9088 42.9322 35.5925 41.8883 35 41L37 37H43L45 41C44.7901 41.3136 44.6145 41.6489 44.4763 42C43.9629 43.2839 43.9629 44.7161 44.4763 46Z" fill="#A0CC00"/>
<path d="M38 33H42V37H38V33Z" fill="#FFF1D8"/>
<path d="M45 41C44.7901 41.3136 44.6145 41.6489 44.4763 42H39V40H44.5L45 41Z" fill="#85B200"/>
<path d="M45 47V48H39V46H44.4763C44.6145 46.3511 44.7901 46.6864 45 47Z" fill="#85B200"/>
<path d="M8 25H59V29H8V25Z" fill="#87C9FF"/>
<path d="M42 25L46 18L52 20V25H42Z" fill="#FF6F35"/>
<path d="M51.1469 7.25879L55.4323 8.97377C56.587 9.43588 57.5768 10.2334 58.274 11.2633C58.9712 12.2933 59.3438 13.5085 59.3438 14.7523V15.2866C59.3438 15.461 59.2982 15.6324 59.2115 15.7837C59.1248 15.9351 59 16.0611 58.8495 16.1493C58.699 16.2375 58.5281 16.2848 58.3536 16.2865C58.1792 16.2882 58.0074 16.2443 57.8552 16.1591L54.0001 14.0001L51.1469 7.25879Z" fill="#E05E1D"/>
<path d="M46 18L48 14L53 16L52 20L46 18Z" fill="#EB352F"/>
<path d="M48 14L47 10L48 6L52.0877 7.63507C53.2426 8.09706 54.2327 8.89452 54.9301 9.92459C55.6275 10.9547 56.0002 12.1701 56.0002 13.414V13.414C56.0002 13.5884 55.9546 13.7598 55.8679 13.9112C55.7811 14.0625 55.6563 14.1885 55.5059 14.2767C55.3554 14.3649 55.1844 14.4123 55.01 14.414C54.8356 14.4157 54.6638 14.3717 54.5116 14.2865L54 14L53 16L48 14Z" fill="#FF6F35"/>
<path d="M47 10L43 8L44 4L48 6L47 10Z" fill="#E6E6E6"/>
<path d="M40.5612 22C40.5574 22.09 40.5562 22.1812 40.5562 22.2712C40.5563 23.1988 40.7061 24.1202 40.9999 25H31C31.646 23.0629 31.584 20.9594 30.825 19.0637C30.5808 18.4512 30.5213 17.7805 30.6539 17.1345C30.7866 16.4886 31.1054 15.8956 31.5712 15.4288L34 13H37.9999L40.4287 15.4288C40.8949 15.8953 41.214 16.4883 41.3466 17.1344C41.4792 17.7805 41.4196 18.4513 41.1749 19.0637C41.0528 19.3697 40.9481 19.6823 40.8612 20C40.6825 20.6525 40.5818 21.3238 40.5612 22Z" fill="#EB352F"/>
<path d="M40.8613 20C40.6826 20.6525 40.5819 21.3238 40.5613 22H35.4163V20H40.8613Z" fill="#C7161F"/>
<path d="M34 9H38V13H34V9Z" fill="#F2E368"/>
<path d="M29 25H21V14L26 9L29 25Z" fill="#65DCFF"/>
<path d="M14 14H21V25H14V14Z" fill="#57C1FF"/>
<path d="M26 9H17L14 14H21L26 9Z" fill="#A0EAFF"/>
<path d="M22 22L25 25H29L26.3517 21.2923C25.6243 20.274 24.6643 19.444 23.5516 18.8714C22.4388 18.2987 21.2055 18 19.9541 18H19.954C18.0497 18 16.21 18.6912 14.7769 19.9452L14.7768 19.9453C11.0094 23.2418 8.29747 27.5759 6.98029 32.4056L3 47C3.90414 48.2055 5.12209 49.1395 6.52089 49.6999C7.91969 50.2604 9.44557 50.4257 10.932 50.178L12 50V47L13.401 31.5886C13.5822 29.5962 14.2986 27.6898 15.4745 26.0712C16.6504 24.4526 18.242 23.182 20.0808 22.3939H20.0809C20.6873 22.134 21.3402 22 22 22Z" fill="#F2E368"/>
<path d="M32 51H50V61H32V51Z" fill="#F2E368"/>
<path d="M50 51H61V61H50V51Z" fill="#EACF4D"/>
<path d="M36 56C36.5523 56 37 55.5523 37 55C37 54.4477 36.5523 54 36 54C35.4477 54 35 54.4477 35 55C35 55.5523 35.4477 56 36 56Z" fill="#EACF4D"/>
<path d="M40 58C40.5523 58 41 57.5523 41 57C41 56.4477 40.5523 56 40 56C39.4477 56 39 56.4477 39 57C39 57.5523 39.4477 58 40 58Z" fill="#EACF4D"/>
<path d="M46 58C46.5523 58 47 57.5523 47 57C47 56.4477 46.5523 56 46 56C45.4477 56 45 56.4477 45 57C45 57.5523 45.4477 58 46 58Z" fill="#EACF4D"/>
<path d="M57 56C57.5523 56 58 55.5523 58 55C58 54.4477 57.5523 54 57 54C56.4477 54 56 54.4477 56 55C56 55.5523 56.4477 56 57 56Z" fill="#E0B82F"/>
<path d="M54 58C54.5523 58 55 57.5523 55 57C55 56.4477 54.5523 56 54 56C53.4477 56 53 56.4477 53 57C53 57.5523 53.4477 58 54 58Z" fill="#E0B82F"/>
<path d="M43 56C43.5523 56 44 55.5523 44 55C44 54.4477 43.5523 54 43 54C42.4477 54 42 54.4477 42 55C42 55.5523 42.4477 56 43 56Z" fill="#EACF4D"/>
<path d="M25 24.9999C24.2524 24.9999 23.5136 25.1599 22.833 25.4693C22.1524 25.7786 21.546 26.23 21.0544 26.7932C20.5628 27.3563 20.1974 28.0182 19.9829 28.7343C19.7684 29.4504 19.7097 30.2042 19.8107 30.9449L22 46.9999C20.4896 46.0937 18.7614 45.615 17 45.615C15.2386 45.615 13.5104 46.0937 12 46.9999L13.405 31.5142C13.5837 29.5448 14.2917 27.6604 15.4538 26.0605C16.616 24.4605 18.1892 23.2046 20.0068 22.4256L20.087 22.3912C20.6814 22.1337 21.3222 22.0006 21.97 21.9999H21.9999C22.3076 21.9999 22.6105 22.0759 22.8817 22.221C23.1529 22.3662 23.3841 22.5761 23.5548 22.8321L25 24.9999Z" fill="#EACF4D"/>
<path d="M17 9C18.154 9.86548 19.5575 10.3333 21 10.3333C22.4425 10.3333 23.846 9.86548 25 9L24 3H18L17 9Z" fill="#3EA7FF"/>
</svg>
