<svg width="64" height="64" viewBox="0 0 64 64" fill="none" xmlns="http://www.w3.org/2000/svg">
<g clip-path="url(#clip0)">
<path d="M30.625 1.375C13.7113 1.375 0 15.0863 0 32C0 32.6921 0.0235 33.3779 0.06875 34.0585L0.2085 34.2645C0.440875 34.3897 0.66075 34.5583 0.863875 34.7669L1.08288 34.9916L1.0785 34.6779C1.07088 34.1388 1.1995 33.6675 1.4605 33.2769C1.83788 32.7121 2.48337 32.375 3.18712 32.375C3.89087 32.375 4.5365 32.7121 4.91375 33.2769C5.17475 33.6675 5.30325 34.1389 5.29575 34.6779L5.29138 34.9916L5.51025 34.7669C5.99613 34.2684 6.56487 34.0047 7.15487 34.0047C7.78237 34.0047 8.39775 34.314 8.8015 34.8321L8.93775 35.0069L9.01688 34.8C9.33888 33.9587 10.1309 33.4565 11.1355 33.4565L11.4853 33.461L11.2619 33.2424C10.4131 32.4117 10.4768 31.5417 10.5434 31.2062C10.7364 30.2362 11.6185 29.5049 12.5951 29.5049C13.1854 29.5049 13.754 29.7684 14.2396 30.267L14.4586 30.4918L14.4543 30.178C14.4466 29.6389 14.5753 29.1675 14.8363 28.777C15.2136 28.2123 15.8591 27.8751 16.5629 27.8751C17.2666 27.8751 17.9122 28.2123 18.2895 28.777C18.5505 29.1675 18.679 29.6389 18.6715 30.178L18.6671 30.4916L18.886 30.267C19.3719 29.7685 19.9406 29.5049 20.5306 29.5049C21.5072 29.5049 22.3892 30.2364 22.5821 31.2062C22.5972 31.2822 22.6155 31.4061 22.6162 31.5643L22.6174 31.7822L22.805 31.6711C23.1264 31.4806 23.4861 31.3799 23.845 31.3799C24.4352 31.3799 25.0039 31.6434 25.4895 32.142L25.7085 32.3667L25.7041 32.053C25.6965 31.5139 25.8251 31.0425 26.0861 30.652C26.4635 30.0873 27.109 29.7501 27.8127 29.7501C28.5165 29.7501 29.1621 30.0873 29.5394 30.652C29.8004 31.0425 29.9289 31.5139 29.9214 32.053L29.917 32.3666L30.1359 32.142C30.6218 31.6435 31.1905 31.3799 31.7805 31.3799C32.2135 31.3799 32.6356 31.5225 33.0011 31.7922L33.0918 31.8591L33.1676 31.776C33.5829 31.3216 34.1769 31.0815 34.8854 31.0815L35.2351 31.086L35.0117 30.8674C34.163 30.0367 34.2266 29.1667 34.2933 28.8312C34.4863 27.8612 35.3684 27.1299 36.3451 27.1299C36.9352 27.1299 37.504 27.3934 37.9897 27.892L38.2086 28.1168L38.2043 27.803C38.1966 27.2639 38.3251 26.7926 38.5861 26.402C38.9635 25.8373 39.609 25.5001 40.3128 25.5001C41.0165 25.5001 41.6621 25.8373 42.0394 26.402C42.3004 26.7926 42.4289 27.264 42.4214 27.803L42.417 28.1168L42.6359 27.892C43.1218 27.3935 43.6905 27.1299 44.2805 27.1299C45.2571 27.1299 46.1391 27.8614 46.332 28.8312C46.3988 29.1667 46.4625 30.0366 45.6136 30.8674L45.3903 31.086L45.7401 31.0815C46.5625 31.0815 47.2375 31.411 47.6409 32.0091L47.7438 32.1618L47.8476 32.0098C48.2264 31.4558 48.8671 31.125 49.562 31.125C50.2659 31.125 50.9114 31.4621 51.2886 32.0269C51.5496 32.4175 51.6781 32.8889 51.6706 33.4279L51.6662 33.7416L51.8851 33.5169C52.371 33.0184 52.9398 32.7547 53.5298 32.7547C54.0896 32.7547 54.6417 33.0004 55.0446 33.4286L55.0994 33.4868L55.175 33.4616C55.4352 33.3752 55.716 33.3315 56.0096 33.3315L56.3594 33.336L56.136 33.1174C55.2873 32.2867 55.3509 31.4167 55.4175 31.0812C55.6105 30.1112 56.4926 29.3799 57.4694 29.3799C58.0595 29.3799 58.6282 29.6434 59.114 30.142L59.3329 30.3668L59.3285 30.053C59.3209 29.5139 59.4494 29.0426 59.7104 28.652C59.9755 28.2554 60.3732 27.9686 60.8405 27.8346L60.945 27.6793C58.8452 12.8119 46.0719 1.375 30.625 1.375V1.375Z" fill="#D8ECFE"/>
<path d="M46.9503 6.08636H41.6823C40.8769 6.08636 40.2239 6.73924 40.2239 7.54474C40.2239 8.35011 40.8768 9.00311 41.6823 9.00311H47.0295C47.8349 9.00311 48.4879 9.65599 48.4879 10.4615C48.4879 11.267 47.835 11.9199 47.0295 11.9199H37.6962C36.8908 11.9199 36.2378 12.5727 36.2378 13.3782C36.2378 14.1836 36.8907 14.8366 37.6962 14.8366H55.9915C53.6164 11.333 50.534 8.34886 46.9503 6.08636V6.08636Z" fill="#EAF6FF"/>
<path d="M4.35672 47.7501L4.90397 47.8751H56.375L56.8932 47.7501C59.6586 43.1479 61.25 37.7601 61.25 32.0001C61.25 30.5332 61.1445 29.0911 60.9451 27.6792C60.3976 27.7996 59.9168 28.1181 59.6066 28.5824C59.3885 28.9089 59.1941 29.3882 59.2036 30.0547C58.6975 29.5353 58.1035 29.2548 57.4695 29.2548C56.4342 29.2548 55.4995 30.0296 55.2951 31.0569C55.2278 31.3952 55.1511 32.3283 56.0487 33.2068C56.0357 33.2067 56.0227 33.2066 56.0097 33.2066C55.6856 33.2066 55.3953 33.2569 55.1358 33.3431C54.7238 32.9051 54.1453 32.6299 53.5299 32.6299C52.8959 32.6299 52.3018 32.9104 51.7957 33.4298C51.8051 32.7633 51.6108 32.2841 51.3927 31.9576C50.9922 31.3581 50.3078 31.0002 49.5621 31.0002C48.8241 31.0002 48.1467 31.3512 47.7445 31.9394C47.36 31.3689 46.6878 30.9567 45.7402 30.9567C45.7272 30.9567 45.7142 30.9567 45.7011 30.9569C46.5987 30.0786 46.522 29.1453 46.4547 28.8072C46.2503 27.7798 45.3157 27.0051 44.2806 27.0051C43.6466 27.0051 43.0526 27.2856 42.5465 27.8049C42.5558 27.1384 42.3616 26.6592 42.1435 26.3327C41.743 25.7332 41.0587 25.3753 40.313 25.3753C39.5672 25.3753 38.883 25.7332 38.4823 26.3327C38.2642 26.6592 38.07 27.1384 38.0793 27.8049C37.5732 27.2856 36.9792 27.0051 36.3452 27.0051C35.31 27.0051 34.3752 27.7798 34.1708 28.8072C34.1036 29.1454 34.0268 30.0786 34.9245 30.9569C34.9115 30.9568 34.8985 30.9567 34.8855 30.9567C34.0815 30.9567 33.476 31.2537 33.0755 31.6918C32.7045 31.4182 32.2535 31.2551 31.7806 31.2551C31.1466 31.2551 30.5526 31.5356 30.0465 32.0549C30.0558 31.3884 29.8616 30.9092 29.6435 30.5827C29.243 29.9832 28.5586 29.6253 27.813 29.6253C27.0672 29.6253 26.383 29.9832 25.9825 30.5827C25.7643 30.9092 25.5701 31.3884 25.5795 32.0549C25.0733 31.5356 24.4793 31.2551 23.8453 31.2551C23.4511 31.2551 23.0718 31.3679 22.7416 31.5637C22.7406 31.4032 22.7227 31.2714 22.705 31.1821C22.5006 30.1547 21.566 29.3799 20.5308 29.3799C19.8968 29.3799 19.3028 29.6604 18.7967 30.1798C18.8061 29.5133 18.6118 29.0341 18.3937 28.7076C17.9932 28.1081 17.3088 27.7502 16.5632 27.7502C15.8175 27.7502 15.1332 28.1081 14.7327 28.7076C14.5146 29.0341 14.3203 29.5133 14.3297 30.1798C13.8236 29.6604 13.2296 29.3799 12.5956 29.3799C11.5603 29.3799 10.6256 30.1547 10.4212 31.1821C10.354 31.5203 10.2772 32.4534 11.1748 33.3319C11.1618 33.3318 11.1488 33.3317 11.1358 33.3317C9.9571 33.3317 9.20197 33.9679 8.90047 34.7554C8.48622 34.2238 7.8436 33.8799 7.15522 33.8799C6.52122 33.8799 5.92722 34.1604 5.4211 34.6798C5.43047 34.0133 5.23622 33.5341 5.0181 33.2076C4.6171 32.6079 3.93285 32.2501 3.1871 32.2501C2.44135 32.2501 1.7571 32.6079 1.3566 33.2074C1.13847 33.5339 0.944223 34.0132 0.953598 34.6797C0.681723 34.4007 0.383973 34.1932 0.0688477 34.0586C0.399848 39.0428 1.92347 43.7007 4.35672 47.7501V47.7501Z" fill="#81B823"/>
<path d="M40.691 27.9241C41.1701 27.9241 41.6441 28.0515 42.0616 28.2926C42.4298 28.5052 42.7347 28.7952 42.9652 29.1381V14.3028C42.9652 10.9528 41.8152 7.70435 39.7073 5.1006L39.3817 4.69835C39.1593 4.42372 38.7152 4.58097 38.7152 4.93435V28.7631C39.2271 28.2353 39.9388 27.9241 40.691 27.9241V27.9241Z" fill="#7A8C98"/>
<path d="M40.7501 6.56672C40.4338 6.05947 40.0867 5.56922 39.7073 5.1006L39.3817 4.69835C39.1593 4.42372 38.7152 4.58097 38.7152 4.93435V28.7631C39.227 28.2353 39.9388 27.9242 40.691 27.9242C40.7107 27.9242 40.7303 27.9257 40.7501 27.9262V6.56672Z" fill="#596C76"/>
<path d="M40.6856 33.4183C40.2065 33.4183 39.7325 33.2909 39.315 33.0498C39.0908 32.9204 38.8906 32.7617 38.7152 32.5809V34.4999L38.8915 34.6249H41.2977L41.4652 34.4999V33.3034C41.2151 33.3777 40.9531 33.4183 40.6856 33.4183Z" fill="#7A8C98"/>
<path d="M39.3149 33.0499C38.6796 32.683 38.2251 32.0908 38.0352 31.3821C38.0153 31.308 38.0004 31.2335 37.9869 31.1589L36.8326 31.8254L36.7939 32.0086L38.0367 34.1611L38.2074 34.2069L39.8191 33.2764C39.6447 33.2181 39.4756 33.1426 39.3149 33.0499V33.0499Z" fill="#8D9CA8"/>
<path d="M63.6834 18.7288L63.172 18.648C59.8632 18.1245 56.475 18.7527 53.5739 20.4277L40.5834 27.9277C40.6191 27.9263 40.6549 27.9241 40.6909 27.9241C41.17 27.9241 41.644 28.0515 42.0615 28.2926C42.6969 28.6595 43.1514 29.2517 43.3412 29.9603C43.4535 30.3793 43.4627 30.809 43.3779 31.2218L63.8122 19.4241C64.1182 19.2473 64.0324 18.7841 63.6834 18.7288V18.7288Z" fill="#9FACBA"/>
<path d="M42.0615 28.2926C42.2852 28.4217 42.485 28.5802 42.6602 28.7605L53.574 22.4595C56.1006 21.0007 58.9966 20.3367 61.8879 20.5352L63.8124 19.4241C64.1184 19.2473 64.0325 18.7842 63.6835 18.729L63.1721 18.6481C59.8634 18.1246 56.4751 18.7528 53.574 20.4278L40.5835 27.9278C40.6192 27.9265 40.655 27.9242 40.691 27.9242C41.17 27.9241 41.644 28.0515 42.0615 28.2926V28.2926Z" fill="#8D9CA8"/>
<path d="M30.6249 62.625C41.7786 62.625 51.5384 56.6616 56.8932 47.75H4.35669C9.71144 56.6616 19.4713 62.625 30.6249 62.625V62.625Z" fill="#8BC727"/>
<path d="M26.304 15.9614C27.1093 15.9614 27.7623 15.3086 27.7623 14.5031C27.7623 13.6977 27.1095 13.0447 26.304 13.0447H19.0825C18.2771 13.0447 17.6241 12.3918 17.6241 11.5863C17.6241 10.7808 18.277 10.1279 19.0825 10.1279H23.1388C23.9442 10.1279 24.5972 9.47506 24.5972 8.66956C24.5972 7.86418 23.9443 7.21118 23.1388 7.21118H12.6412C11.4202 8.09856 10.2675 9.07381 9.19184 10.1278H10.7916C11.5971 10.1281 12.25 10.7811 12.25 11.5864C12.25 12.3918 11.5971 13.0448 10.7916 13.0448H6.57034C5.83647 13.9748 5.15634 14.9488 4.53259 15.9614H26.304Z" fill="#EAF6FF"/>
<path d="M19 52.0625C19 51.5447 18.5803 51.125 18.0625 51.125H16.1875C15.6697 51.125 15.25 51.5447 15.25 52.0625C15.25 52.5803 15.6697 53 16.1875 53H18.0625C18.5803 53 19 52.5803 19 52.0625Z" fill="#81B823"/>
<path d="M29.375 57.3125C29.375 56.7947 28.9553 56.375 28.4375 56.375H26.5625C26.0447 56.375 25.625 56.7947 25.625 57.3125C25.625 57.8303 26.0447 58.25 26.5625 58.25H28.4375C28.9553 58.25 29.375 57.8303 29.375 57.3125Z" fill="#81B823"/>
<path d="M34.125 51.1875C34.125 50.6697 33.7053 50.25 33.1875 50.25H31.3125C30.7947 50.25 30.375 50.6697 30.375 51.1875C30.375 51.7053 30.7947 52.125 31.3125 52.125H33.1875C33.7053 52.125 34.125 51.7053 34.125 51.1875Z" fill="#81B823"/>
<path d="M49.75 51.0625C49.75 50.5447 49.3303 50.125 48.8125 50.125H46.9375C46.4197 50.125 46 50.5447 46 51.0625C46 51.5803 46.4197 52 46.9375 52H48.8125C49.3303 52 49.75 51.5803 49.75 51.0625Z" fill="#81B823"/>
<path d="M8.68754 38.125C7.99454 38.125 7.40679 38.5762 7.20229 39.2009C7.12367 39.4411 7.30817 39.6875 7.56104 39.6875H9.81404C10.0668 39.6875 10.2514 39.4411 10.1728 39.2009C9.96829 38.5762 9.38054 38.125 8.68754 38.125Z" fill="#8BC727"/>
<path d="M17.8786 34.0625C17.1856 34.0625 16.5978 34.5137 16.3933 35.1384C16.3147 35.3786 16.4992 35.625 16.7521 35.625H19.0051C19.2578 35.625 19.4425 35.3786 19.3638 35.1384C19.1592 34.5137 18.5716 34.0625 17.8786 34.0625Z" fill="#8BC727"/>
<path d="M49.1214 35.6875C48.4284 35.6875 47.8406 36.1387 47.6361 36.7634C47.5575 37.0036 47.742 37.25 47.9949 37.25H50.2479C50.5006 37.25 50.6852 37.0036 50.6066 36.7634C50.4021 36.1387 49.8145 35.6875 49.1214 35.6875Z" fill="#8BC727"/>
<path d="M52.9964 40.5C52.3034 40.5 51.7156 40.9512 51.5111 41.5759C51.4325 41.8161 51.617 42.0625 51.8699 42.0625H54.1229C54.3756 42.0625 54.5602 41.8161 54.4816 41.5759C54.2771 40.9512 53.6895 40.5 52.9964 40.5Z" fill="#8BC727"/>
<path d="M32.3714 41.8125C31.6784 41.8125 31.0906 42.2637 30.8861 42.8884C30.8075 43.1286 30.992 43.375 31.2449 43.375H33.4979C33.7506 43.375 33.9353 43.1286 33.8566 42.8884C33.6521 42.2637 33.0645 41.8125 32.3714 41.8125Z" fill="#8BC727"/>
<path d="M32.2389 18.7433C31.2094 19.7728 30.7703 21.1906 30.8959 22.6341C30.9119 22.8174 31.0575 22.9631 31.2409 22.9791C32.6844 23.1047 34.1022 22.6656 35.1317 21.6361C36.1612 20.6066 36.6003 19.1888 36.4747 17.7453C36.4587 17.5619 36.3131 17.4163 36.1297 17.4003C34.6862 17.2747 33.2684 17.7138 32.2389 18.7433V18.7433Z" fill="#81B823"/>
<path d="M33.2434 19.8638C34.1184 18.9888 35.2741 18.5419 36.4873 18.5041C36.5004 18.2532 36.4968 17.9997 36.4746 17.7452C36.4586 17.5618 36.3129 17.4162 36.1296 17.4002C34.6862 17.2746 33.2683 17.7137 32.2389 18.7432C31.2095 19.7727 30.7703 21.1904 30.8959 22.6338C30.9119 22.8172 31.0575 22.9628 31.2409 22.9788C31.4575 22.9977 31.6734 23.0022 31.8877 22.9956C31.9489 21.8234 32.3954 20.7118 33.2434 19.8638V19.8638Z" fill="#78A91F"/>
<path d="M28.4889 8.13607C29.5184 9.16557 30.9362 9.6047 32.3797 9.47907C32.563 9.46307 32.7087 9.31745 32.7247 9.13407C32.8503 7.69069 32.4112 6.27282 31.3817 5.24332C30.3522 4.21382 28.9344 3.77469 27.4909 3.90032C27.3075 3.91632 27.1619 4.06194 27.1459 4.24532C27.0203 5.68882 27.4595 7.10657 28.4889 8.13607V8.13607Z" fill="#8BC727"/>
<path d="M29.4934 7.13164C28.6174 6.25564 28.1704 5.09839 28.1335 3.88351C27.9207 3.87701 27.7062 3.88164 27.4909 3.90039C27.3075 3.91639 27.1619 4.06202 27.1459 4.24539C27.0203 5.68877 27.4594 7.10664 28.4889 8.13601C29.5184 9.16539 30.9362 9.60464 32.3795 9.47901C32.5629 9.46301 32.7085 9.31739 32.7245 9.13401C32.7433 8.91876 32.7479 8.70426 32.7414 8.49139C31.5267 8.45464 30.3694 8.00764 29.4934 7.13164V7.13164Z" fill="#81B823"/>
<path d="M45.4889 3.74332C44.4594 4.77282 44.0203 6.19057 44.1459 7.63407C44.1619 7.81745 44.3075 7.96307 44.4909 7.97907C45.9343 8.1047 47.3522 7.66557 48.3817 6.63607C49.4112 5.60657 49.8503 4.18882 49.7247 2.74532C49.7087 2.56194 49.563 2.41632 49.3797 2.40032C47.9362 2.27469 46.5184 2.71382 45.4889 3.74332V3.74332Z" fill="#81B823"/>
<path d="M46.4934 4.86382C47.3684 3.98882 48.524 3.54195 49.7373 3.50407C49.7504 3.2532 49.7468 2.9997 49.7245 2.7452C49.7085 2.56182 49.5629 2.4162 49.3795 2.4002C47.9362 2.27457 46.5183 2.7137 45.4889 3.7432C44.4595 4.7727 44.0203 6.19045 44.1459 7.63382C44.1619 7.8172 44.3075 7.96282 44.4909 7.97882C44.7075 7.9977 44.9234 8.0022 45.1377 7.99557C45.1989 6.82345 45.6454 5.71182 46.4934 4.86382Z" fill="#78A91F"/>
<path d="M33.6609 36.8319L31.4734 33.043L34.9375 31.043C35.5354 30.6979 36.2999 30.9027 36.645 31.5005L38.2075 34.2069L33.6609 36.8319Z" fill="#FD8087"/>
<path d="M31.6676 33.1294L31.4735 33.043L18.6996 40.418C17.8029 40.9358 17.4956 42.0825 18.0133 42.9793L18.3258 43.5205C18.8436 44.4173 19.9903 44.7247 20.8871 44.2068L33.661 36.8318L33.6577 36.5762L31.6676 33.1294Z" fill="#F6A96C"/>
<path d="M21.9136 40.418L32.2769 34.4348L31.4734 33.043L18.6995 40.418C17.8027 40.9358 17.4955 42.0825 18.0132 42.9793L18.3257 43.5205C18.8435 44.4173 19.9902 44.7247 20.887 44.2068L21.6922 43.7419C21.6375 43.6723 21.5855 43.5995 21.5399 43.5205L21.2274 42.9793C20.7096 42.0827 21.0169 40.9359 21.9136 40.418V40.418Z" fill="#EA9B58"/>
<path d="M33.6409 34.4186C33.2958 33.8208 33.5005 33.0563 34.0984 32.7111L36.48 31.3361C36.4916 31.3294 36.5036 31.3243 36.5154 31.318C36.1324 30.865 35.4694 30.736 34.9375 31.0431L31.4734 33.0431L33.6609 36.832L34.6909 36.2374L33.6409 34.4186Z" fill="#FE646F"/>
<path d="M42.8288 39.625H39.0007L38.7151 39.75V54.5C38.7151 55.5355 39.5546 56.375 40.5901 56.375H41.2151C42.2506 56.375 43.0901 55.5355 43.0901 54.5V39.75L42.8288 39.625Z" fill="#F6A96C"/>
<path d="M40.75 54.5V39.75H38.7151V54.5C38.7151 55.5355 39.5546 56.375 40.5901 56.375H41.2151C41.4646 56.375 41.7022 56.3253 41.92 56.2368C41.2341 55.958 40.75 55.286 40.75 54.5Z" fill="#EA9B58"/>
<path d="M38.7151 39.75H43.0901V35.75C43.0901 35.0596 42.5305 34.5 41.8401 34.5H38.7151V39.75Z" fill="#FD8087"/>
<path d="M39.75 37.375V34.5H38.7151V39.75H43.0901V38.625H41C40.3096 38.625 39.75 38.0654 39.75 37.375Z" fill="#FE646F"/>
<path d="M40.6883 33.5429C42.2742 33.5429 43.5599 32.2573 43.5599 30.6713C43.5599 29.0854 42.2742 27.7997 40.6883 27.7997C39.1023 27.7997 37.8167 29.0854 37.8167 30.6713C37.8167 32.2573 39.1023 33.5429 40.6883 33.5429Z" fill="#B6C4CF"/>
<path d="M41.3171 33.1581C39.9436 32.3651 39.473 30.6089 40.266 29.2354C40.608 28.6431 41.1293 28.2192 41.7215 27.9916C40.4241 27.4895 38.9186 27.9929 38.2014 29.2354C37.4084 30.6089 37.879 32.3651 39.2525 33.1581C40.0338 33.6091 40.9386 33.6509 41.7198 33.3507C41.5828 33.2977 41.4481 33.2339 41.3171 33.1581Z" fill="#9FACBA"/>
<path d="M54.4606 15.7501C55.9164 15.7501 57.2296 15.0581 58.1613 13.9486C58.2797 13.8076 58.2797 13.6016 58.1613 13.4607C57.2294 12.3512 55.9164 11.6592 54.4606 11.6592C53.0047 11.6592 51.6916 12.3512 50.7598 13.4607C50.6414 13.6017 50.6414 13.8077 50.7598 13.9486C51.6916 15.0581 53.0046 15.7501 54.4606 15.7501Z" fill="#81B823"/>
<path d="M51.0347 14.2501C51.9418 13.3189 53.1421 12.7501 54.4606 12.7501C55.7791 12.7501 56.9793 13.3189 57.8864 14.2501C57.9811 14.1531 58.0734 14.0533 58.1613 13.9486C58.2797 13.8076 58.2797 13.6016 58.1613 13.4607C57.2294 12.3512 55.9164 11.6592 54.4606 11.6592C53.0047 11.6592 51.6916 12.3512 50.7598 13.4607C50.6414 13.6017 50.6414 13.8077 50.7598 13.9486C50.8477 14.0533 50.9401 14.1529 51.0347 14.2501Z" fill="#78A91F"/>
<path d="M29.1419 21.6666C29.1419 20.8613 28.489 20.2083 27.6835 20.2083H22.0879C21.2825 20.2083 20.6296 20.8611 20.6296 21.6666C20.6296 22.472 21.2825 23.1249 22.0879 23.1249H27.6835C28.489 23.125 29.1419 22.4721 29.1419 21.6666V21.6666Z" fill="#EAF6FF"/>
<path d="M48.2389 22.7566C49.2684 23.7861 50.6862 24.2252 52.1297 24.0996C52.313 24.0836 52.4587 23.938 52.4747 23.7546C52.6003 22.3112 52.1612 20.8934 51.1317 19.8639C50.1022 18.8344 48.6844 18.3952 47.2409 18.5209C47.0575 18.5369 46.9119 18.6825 46.8959 18.8659C46.7703 20.3094 47.2095 21.7271 48.2389 22.7566V22.7566Z" fill="#8BC727"/>
<path d="M49.2435 21.6361C48.3955 20.7881 47.949 19.6765 47.8879 18.5042C47.6737 18.4976 47.4578 18.5021 47.2412 18.521C47.0578 18.537 46.9122 18.6826 46.8962 18.866C46.7705 20.3093 47.2097 21.7272 48.2392 22.7566C49.2687 23.786 50.6864 24.2252 52.1298 24.0996C52.3132 24.0836 52.4588 23.938 52.4748 23.7546C52.4969 23.5001 52.5005 23.2466 52.4875 22.9957C51.2742 22.958 50.1185 22.511 49.2435 21.6361V21.6361Z" fill="#81B823"/>
</g>
<defs>
<clipPath id="clip0">
<rect width="64" height="64" fill="white"/>
</clipPath>
</defs>
</svg>
