<svg width="64" height="64" viewBox="0 0 64 64" fill="none" xmlns="http://www.w3.org/2000/svg">
<g clip-path="url(#clip0)">
<path fill-rule="evenodd" clip-rule="evenodd" d="M45.7015 43.335L42.4949 48.8875C40.6844 52.0303 41.7687 56.0837 44.9115 57.898C48.0508 59.7122 52.1044 58.6242 53.9187 55.4815L57.1253 49.9326C57.3485 49.543 57.2883 49.1601 56.8489 48.905L46.7257 43.0622C46.3287 42.8317 45.9674 42.8742 45.7015 43.335V43.335Z" fill="#E2D8EC"/>
<path fill-rule="evenodd" clip-rule="evenodd" d="M45.7016 43.335L45.1382 44.3094L53.0999 48.9051C53.5358 49.1602 53.5996 49.5431 53.3763 49.9327L50.1697 55.4816C49.2911 57.0016 47.8913 58.0434 46.3217 58.5041C49.1777 59.3545 52.3666 58.1711 53.9186 55.4816L57.1252 49.9327C57.3484 49.5431 57.2882 49.1602 56.8488 48.9051L46.7256 43.0624C46.3287 42.8317 45.9674 42.8742 45.7016 43.335Z" fill="#D5C6E4"/>
<path fill-rule="evenodd" clip-rule="evenodd" d="M49.6666 44.7595L48.3379 47.0625C47.6646 48.2283 48.0686 49.7341 49.2344 50.4075C50.4001 51.0806 51.906 50.6803 52.5794 49.511L53.9116 47.2078L53.4191 46.9243L52.1541 45.415L50.1558 45.0429L49.6666 44.7595Z" fill="#D5C6E4"/>
<path fill-rule="evenodd" clip-rule="evenodd" d="M63.0604 26.4616C62.1639 25.9442 61.0053 26.2526 60.4844 27.1527L50.1556 45.0428L53.419 46.9242L63.7477 29.0341C64.2686 28.1377 63.9567 26.979 63.0604 26.4616V26.4616Z" fill="#4A80AA"/>
<path fill-rule="evenodd" clip-rule="evenodd" d="M25.5084 29.5976C26.0221 29.0838 29.4697 29.0413 31.571 31.1425C33.6722 33.2436 33.6296 36.6948 33.1159 37.205C32.602 37.7186 29.1509 37.7648 27.0532 35.6638C24.9521 33.5625 24.9946 30.1114 25.5084 29.5976V29.5976ZM50.2124 30.7634C49.734 30.2849 46.5237 30.246 44.5714 32.1984C42.619 34.1505 42.6579 37.361 43.1364 37.8356C43.6147 38.3141 46.8214 38.3566 48.7739 36.4006C50.7296 34.4485 50.6871 31.238 50.2124 30.7634V30.7634ZM36.73 30.4268C37.8815 30.4268 41.8004 26.6069 41.8004 21.8945C41.8004 17.1819 37.8814 13.362 36.73 13.362C35.5784 13.362 31.6595 17.1819 31.6595 21.8945C31.6596 26.607 35.5784 30.4268 36.73 30.4268Z" fill="#CCF49F"/>
<path fill-rule="evenodd" clip-rule="evenodd" d="M25.5083 29.5976C26.0221 29.0837 29.4697 29.0412 31.571 31.1425C33.6722 33.2436 33.6296 36.6947 33.1158 37.205C32.7721 37.5487 31.1243 37.6832 29.4378 37.1092C29.8772 36.3546 29.8206 33.1407 27.8221 31.1425C27.124 30.4442 26.2737 29.9837 25.434 29.6967C25.4587 29.6577 25.4836 29.6224 25.5083 29.5976V29.5976ZM50.2123 30.7634C49.8757 30.4301 48.2103 30.3097 46.5697 30.9332C46.9312 31.7589 46.8177 34.6077 45.0248 36.4005C44.4367 36.9889 43.7352 37.3964 43.03 37.6656C43.062 37.7399 43.0973 37.7967 43.1363 37.8355C43.6147 38.314 46.8213 38.3565 48.7738 36.4005C50.7296 34.4485 50.6871 31.238 50.2123 30.7634V30.7634ZM36.73 30.4267C37.8815 30.4267 41.8003 26.6069 41.8003 21.8945C41.8003 17.1819 37.8813 13.362 36.73 13.362C36.3366 13.362 35.6243 13.8051 34.8556 14.5739C36.3473 16.0656 38.0481 18.7867 38.0481 21.8944C38.0481 25.0017 36.3472 27.7196 34.8556 29.2112C35.6245 29.9802 36.3367 30.4267 36.73 30.4267Z" fill="#B3E59F"/>
<path d="M37.6688 41.9814L42.4736 37.1731C42.8386 36.8081 43.4338 36.8081 43.7988 37.1731C44.1638 37.5417 44.1638 38.1333 43.7988 38.4983L37.6689 44.6318V47.5727C37.6689 48.0901 37.2473 48.5117 36.7299 48.5117C36.2126 48.5117 35.7909 48.0901 35.7909 47.5727V41.2089L32.4532 37.8711C32.0882 37.5027 32.0882 36.9108 32.4532 36.5424C32.8181 36.1774 33.4134 36.1774 33.7784 36.5424L35.7909 38.5586V21.8944C35.7909 21.3771 36.2126 20.9554 36.7299 20.9554C37.2473 20.9554 37.6689 21.3771 37.6689 21.8944V41.9814H37.6688Z" fill="#78C2A4"/>
<path fill-rule="evenodd" clip-rule="evenodd" d="M25.6535 50.2126C26.7271 50.2197 27.8008 50.4394 28.7504 50.9495C29.6326 51.4244 29.661 51.1055 30.2351 50.4359C31.3053 49.1851 33.0095 48.2249 34.6005 47.8316C35.3091 47.6544 35.9965 47.5765 36.73 47.5729C39.9933 47.5908 43.0441 49.38 44.5465 52.2996C45.365 53.8977 44.8088 53.3342 46.4705 53.7135C48.3875 54.1635 50.0421 55.4711 50.8218 57.2921C51.2186 58.224 51.4525 57.9689 52.3135 57.8307C53.7203 57.6041 55.2616 58.256 56.2076 59.2977C56.9659 60.1339 57.3593 61.1544 57.4018 62.2777C57.4195 62.8979 57.1254 63.036 56.608 63.036H7.92275C7.46925 63.0394 7.15025 62.9084 7.32037 62.2952C8.01137 59.8824 10.2046 58.0894 12.7487 58.1426C13.4504 58.1602 13.4645 57.9866 13.8542 57.441C14.7649 56.1974 16.3912 55.439 17.9326 55.5772C18.8326 55.6587 18.7724 55.4566 19.0594 54.6774C20.0445 51.9912 22.8472 50.2302 25.6535 50.2126V50.2126Z" fill="#E59B6C"/>
<path fill-rule="evenodd" clip-rule="evenodd" d="M30.9082 49.7554C31.95 48.8413 33.3141 48.1504 34.6003 47.8315C35.309 47.6543 35.9963 47.5764 36.7298 47.5728C39.9931 47.5906 43.044 49.3799 44.5463 52.2995C45.3648 53.8976 44.8086 53.3341 46.4703 53.7134C48.3873 54.1634 50.042 55.471 50.8216 57.292C51.2185 58.2239 51.4523 57.9688 52.3133 57.8306C53.7201 57.604 55.2615 58.2559 56.2075 59.2976C56.9657 60.1338 57.3591 61.1543 57.4016 62.2776C57.4193 62.8978 57.1252 63.0359 56.6078 63.0359H52.8591C53.3728 63.0359 53.6705 62.9153 53.6528 62.3733C53.6102 61.3953 53.2133 60.5024 52.4587 59.7759C51.5126 58.8653 49.9677 58.2949 48.561 58.4931C47.7036 58.6138 47.4697 58.8369 47.0692 58.0256C46.2897 56.4346 44.635 55.2938 42.7216 54.9004C41.0598 54.5708 41.6161 55.0598 40.794 53.6673C39.2916 51.1163 36.2443 49.5571 32.981 49.543C32.2688 49.543 31.5991 49.6101 30.9082 49.7554V49.7554Z" fill="#D68756"/>
<path d="M17.2346 60.2047C16.7172 60.2047 16.2992 59.7867 16.2992 59.2694C16.2992 58.7484 16.7173 58.3304 17.2346 58.3304H20.9161C21.4334 58.3304 21.8551 58.7484 21.8551 59.2694C21.8551 59.7868 21.4333 60.2047 20.9161 60.2047H17.2346ZM34.6216 52.7037C34.1042 52.7037 33.6862 52.2854 33.6862 51.7682C33.6862 51.2508 34.1043 50.8292 34.6216 50.8292H37.7716C38.2888 50.8292 38.707 51.2508 38.707 51.7682C38.707 52.2855 38.2887 52.7037 37.7716 52.7037H34.6216ZM23.1093 56.4559C22.5919 56.4559 22.1739 56.0343 22.1739 55.5169C22.1739 54.9995 22.5921 54.5815 23.1093 54.5815H26.2593C26.7767 54.5815 27.1948 54.9995 27.1948 55.5169C27.1948 56.0343 26.7767 56.4559 26.2593 56.4559H23.1093ZM37.9841 56.4559C37.4667 56.4559 37.0487 56.0343 37.0487 55.5169C37.0487 54.9995 37.4668 54.5815 37.9841 54.5815H41.1341C41.6515 54.5815 42.0731 54.9995 42.0731 55.5169C42.0731 56.0343 41.6515 56.4559 41.1341 56.4559H37.9841ZM30.5467 56.4559C30.0293 56.4559 29.6113 56.0343 29.6113 55.5169C29.6113 54.9995 30.0295 54.5815 30.5467 54.5815H33.6967C34.2141 54.5815 34.6357 54.9995 34.6357 55.5169C34.6357 56.0343 34.2141 56.4559 33.6967 56.4559H30.5467ZM43.3276 60.2047C42.8102 60.2047 42.3885 59.7867 42.3885 59.2694C42.3885 58.7484 42.8102 58.3304 43.3276 58.3304H47.009C47.5263 58.3304 47.9481 58.7484 47.9481 59.2694C47.9481 59.7868 47.5263 60.2047 47.009 60.2047H43.3276ZM34.6287 60.2047C34.1113 60.2047 33.6933 59.7867 33.6933 59.2694C33.6933 58.7484 34.1115 58.3304 34.6287 58.3304H38.3102C38.8311 58.3304 39.2492 58.7484 39.2492 59.2694C39.2492 59.7868 38.8311 60.2047 38.3102 60.2047H34.6287ZM25.9333 60.2047C25.4159 60.2047 24.9943 59.7867 24.9943 59.2694C24.9943 58.7484 25.4159 58.3304 25.9333 58.3304H29.6148C30.1322 58.3304 30.5502 58.7484 30.5502 59.2694C30.5502 59.7868 30.1321 60.2047 29.6148 60.2047H25.9333Z" fill="#C47443"/>
<path fill-rule="evenodd" clip-rule="evenodd" d="M26.4367 20.6793H16.1433L11.9977 24.8248H26.4367C26.8477 24.8248 27.1843 24.4847 27.1843 24.0736V21.4268C27.1843 21.0157 26.8477 20.6793 26.4367 20.6793V20.6793Z" fill="#DA4A54"/>
<path fill-rule="evenodd" clip-rule="evenodd" d="M26.4367 20.6793H16.1433H22.6843C23.0989 20.6793 23.4356 21.0157 23.4356 21.4268V24.0736C23.4356 24.4847 23.0989 24.8248 22.6843 24.8248H26.4367C26.8477 24.8248 27.1843 24.4847 27.1843 24.0736V21.4268C27.1843 21.0157 26.8477 20.6793 26.4367 20.6793V20.6793Z" fill="#D82E3D"/>
<path d="M3.87994 14.1275C4.00744 14.5989 3.72756 15.0843 3.25631 15.2118C2.78144 15.3358 2.29606 15.056 2.17206 14.5848L0.187812 7.20389C-0.0779377 6.21164 0.0850623 5.19852 0.566937 4.36914C1.04531 3.54002 1.83894 2.89164 2.83106 2.62602C3.75594 2.38852 4.91806 2.49489 5.72244 3.03689C6.52681 3.52252 7.15394 4.30202 7.41256 5.26927L8.42956 9.04289C8.55356 9.51752 8.27369 10.0031 7.80244 10.1271C7.33119 10.2546 6.84581 9.97477 6.71819 9.49989L5.71544 5.77577C5.53469 5.23014 5.32919 4.86514 4.82256 4.55702C3.81269 4.04314 2.68594 4.23452 2.09419 5.25502C1.84256 5.69077 1.75756 6.22577 1.89931 6.74677L3.87994 14.1275Z" fill="#4A80AA"/>
<path fill-rule="evenodd" clip-rule="evenodd" d="M21.9048 15.5413L11.6469 25.7992C10.839 26.6071 9.52091 26.6071 8.71303 25.7992L0.605906 17.6922C-0.201969 16.8843 -0.201969 15.5662 0.605906 14.7583L10.8638 4.50031L21.9048 15.5413Z" fill="#DD636E"/>
<path fill-rule="evenodd" clip-rule="evenodd" d="M21.9048 15.5413L11.6469 25.7992C10.839 26.6071 9.52092 26.6071 8.71304 25.7992L8.30554 25.3917L17.6244 16.0728C17.9504 15.7469 17.9964 15.3819 17.6244 15.0098L8.98942 6.37481L10.8638 4.50031L21.9048 15.5413Z" fill="#DA4A54"/>
<path fill-rule="evenodd" clip-rule="evenodd" d="M13.7942 1.57014L24.8352 12.6111C25.643 13.4154 25.643 14.7335 24.8352 15.5413C24.0308 16.3458 22.7127 16.3458 21.9049 15.5413L10.8638 4.50026C10.0594 3.69239 10.0594 2.37426 10.8638 1.57014C11.6717 0.762265 12.9898 0.762265 13.7942 1.57014V1.57014Z" fill="#DA4A54"/>
<path fill-rule="evenodd" clip-rule="evenodd" d="M13.7942 1.57014L24.8352 12.6111C25.6431 13.4154 25.6431 14.7335 24.8352 15.5413C24.0308 16.3458 22.7127 16.3458 21.9049 15.5413L21.4372 15.0735C21.8659 14.2869 21.7526 13.2738 21.0864 12.6111L10.5131 2.03789C10.6052 1.86776 10.7221 1.71176 10.8638 1.57014C11.6717 0.762265 12.9898 0.762265 13.7942 1.57014V1.57014Z" fill="#D82E3D"/>
<path d="M9.37193 13.1247C9.00343 12.7597 9.00343 12.1679 9.37193 11.7994C9.73693 11.4344 10.3322 11.4344 10.6972 11.7994L14.6054 15.7077C14.9704 16.0763 14.9704 16.6679 14.6054 17.0329C14.2406 17.4016 13.6452 17.4016 13.2802 17.0329L9.37193 13.1247ZM6.43806 16.0586C6.07306 15.6902 6.07306 15.0983 6.43806 14.7333C6.80656 14.3649 7.39831 14.3649 7.76681 14.7333L11.6751 18.6416C12.0399 19.0066 12.0399 19.5983 11.6751 19.9668C11.3066 20.3318 10.7148 20.3318 10.3463 19.9668L6.43806 16.0586Z" fill="#D82E3D"/>
<path fill-rule="evenodd" clip-rule="evenodd" d="M48.7275 46.3824L49.6665 44.7595L53.9114 47.2078L52.9725 48.8343L48.7275 46.3824Z" fill="#C6B4DA"/>
</g>
<defs>
<clipPath id="clip0">
<rect width="64" height="64" fill="white"/>
</clipPath>
</defs>
</svg>
