<svg width="358" height="407" viewBox="0 0 358 407" fill="none" xmlns="http://www.w3.org/2000/svg">
<g clip-path="url(#clip0)">
<path opacity="0.24" d="M69.615 55.4407C54.208 62.0678 39.3682 71.3363 29.831 85.1586C22.2692 96.1123 18.5735 109.196 15.1045 122.081C8.35568 147.113 2.03219 173.385 7.62786 198.7C11.7206 217.218 22.0991 234.676 21.3807 253.611C20.3505 280.943 -3.62964 304.923 0.472589 331.953C4.38578 357.761 31.3906 372.454 55.4463 382.489C80.5323 392.96 106.242 402.816 133.228 406.016C160.214 409.215 188.92 405.173 211.322 389.77C233.005 374.859 246.824 350.802 255.747 326.017C264.669 301.231 269.348 275.139 277.033 249.947C280.577 238.321 284.84 226.752 291.769 216.811C299 206.397 308.783 198.17 317.602 189.062C330.308 175.874 340.888 160.785 348.964 144.339C354.389 133.29 358.718 121.229 357.905 108.94C356.166 82.7918 332.451 63.8571 309.151 52.0703C232.409 13.1975 147.009 22.1062 69.615 55.4407Z" fill="#3C7FEA"/>
<path d="M87.4134 134.862C82.717 137.144 79.0759 141.147 77.2429 146.043L86.109 148.523C86.6856 148.724 87.2954 148.811 87.9049 148.779C88.825 148.545 89.6605 148.056 90.3152 147.368C96.79 141.887 105.287 139.605 113.445 137.295C122.897 134.606 123.606 127.828 112.934 130.355C104.588 132.296 95.2398 131.075 87.4134 134.862Z" fill="#3C7FEA"/>
<path d="M114.494 124.713C106.393 135.307 100.316 147.264 94.2473 159.155C92.1285 163.078 90.3054 167.154 88.7935 171.349C85.3056 181.877 84.9653 195.017 85.5892 206.066C85.6932 207.836 86.8274 208.111 88.2263 209.19C90.0317 210.601 92.8484 209.531 94.1528 207.647C95.4572 205.763 95.6935 203.368 96.0433 201.095C97.1567 193.903 99.7685 187.026 103.709 180.911C104.9 179.074 106.233 177.247 106.743 175.117C107.206 173.224 110.817 162.232 110.628 160.272C109.399 147.226 107.017 142.9 111.072 130.441" fill="#F7F5FA"/>
<path d="M114.494 124.713C106.393 135.307 100.316 147.264 94.2473 159.155C92.1285 163.078 90.3054 167.154 88.7935 171.349C85.3056 181.877 84.9653 195.017 85.5892 206.066C85.6932 207.836 86.8274 208.111 88.2263 209.19C90.0317 210.601 92.8484 209.531 94.1528 207.647C95.4572 205.763 95.6935 203.368 96.0433 201.095C97.1567 193.903 99.7685 187.026 103.709 180.911C104.9 179.074 106.233 177.247 106.743 175.117C107.206 173.224 110.817 162.232 110.628 160.272C109.399 147.226 107.017 142.9 111.072 130.441" fill="url(#paint0_linear)"/>
<path d="M72.4318 223.306C70.0032 224.299 67.8101 225.792 65.9949 227.689C63.613 230.463 62.8473 234.24 62.3464 237.857C61.7309 242.206 61.3648 246.587 61.2499 250.979C61.1649 254.34 61.3066 257.975 63.3861 260.607C65.2765 262.993 68.4241 264.081 71.4582 264.138C74.4945 264.051 77.5013 263.515 80.3811 262.548L104.011 255.921C106.611 255.192 109.446 254.292 110.874 252.001C111.97 250.24 111.998 248.044 111.98 245.98C111.913 238.567 112.102 233.114 111.318 225.748C110.845 221.299 107.821 216.413 103.18 215.495C93.5573 213.573 80.7969 219.348 72.4318 223.306Z" fill="#606161"/>
<path d="M78.6608 228.948C76.6241 229.759 74.7792 230.988 73.2447 232.555C71.2408 234.837 70.5981 237.952 70.1727 240.934C69.6498 244.513 69.3342 248.12 69.2275 251.736C69.1519 254.5 69.2748 257.492 71.0329 259.66C71.8889 260.605 72.9383 261.354 74.1095 261.855C75.2807 262.357 76.5462 262.599 77.8195 262.567C80.3898 262.499 82.9368 262.059 85.3812 261.26L105.287 255.769C107.471 255.173 109.853 254.425 111.063 252.541C112.008 251.092 112.008 249.284 112.008 247.58C111.951 241.483 112.31 235.111 111.649 229.052C111.252 225.388 109.976 222.757 106.063 222.009C97.9242 220.456 85.7121 225.691 78.6608 228.948Z" fill="#606161"/>
<path d="M78.6608 228.948C76.6241 229.759 74.7792 230.988 73.2447 232.555C71.2408 234.837 70.5981 237.952 70.1727 240.934C69.6498 244.513 69.3342 248.12 69.2275 251.736C69.1519 254.5 69.2748 257.492 71.0329 259.66C71.8889 260.605 72.9383 261.354 74.1095 261.855C75.2807 262.357 76.5462 262.599 77.8195 262.567C80.3898 262.499 82.9368 262.059 85.3812 261.26L105.287 255.769C107.471 255.173 109.853 254.425 111.063 252.541C112.008 251.092 112.008 249.284 112.008 247.58C111.951 241.483 112.31 235.111 111.649 229.052C111.252 225.388 109.976 222.757 106.063 222.009C97.9242 220.456 85.7121 225.691 78.6608 228.948Z" fill="url(#paint1_linear)"/>
<path d="M190.527 0V20.989H158.522V0H153.578V406.801H158.531V389.078H190.536V398.726H195.489V0H190.527ZM190.527 25.9594V42.3568H158.522V25.9878L190.527 25.9594ZM158.522 341.401V325.004H190.527V341.401H158.522ZM190.527 346.362V362.759H158.522V346.362H190.527ZM158.522 320.033V303.636H190.527V320.033H158.522ZM158.522 298.675V282.278H190.527V298.647L158.522 298.675ZM158.522 277.317V260.919H190.527V277.317H158.522ZM158.522 255.958V239.561H190.527V255.958H158.522ZM158.522 234.6V218.174H190.527V234.581L158.522 234.6ZM158.522 213.232V196.835H190.527V213.232H158.522ZM158.522 191.874V175.477H190.527V191.874H158.522ZM158.522 170.516V154.118H190.527V170.516H158.522ZM158.522 149.158V132.76H190.527V149.158H158.522ZM158.522 127.799V111.392H190.527V127.799H158.522ZM158.522 106.432V90.0342H190.527V106.46L158.522 106.432ZM158.522 85.0733V68.6759H190.527V85.0733H158.522ZM158.522 63.715V47.3177H190.527V63.715H158.522ZM158.522 384.118V367.758H190.527V384.155L158.522 384.118Z" fill="#3C7FEA"/>
<path d="M190.527 0V20.989H158.522V0H153.578V406.801H158.531V389.078H190.536V398.726H195.489V0H190.527ZM190.527 25.9594V42.3568H158.522V25.9878L190.527 25.9594ZM158.522 341.401V325.004H190.527V341.401H158.522ZM190.527 346.362V362.759H158.522V346.362H190.527ZM158.522 320.033V303.636H190.527V320.033H158.522ZM158.522 298.675V282.278H190.527V298.647L158.522 298.675ZM158.522 277.317V260.919H190.527V277.317H158.522ZM158.522 255.958V239.561H190.527V255.958H158.522ZM158.522 234.6V218.174H190.527V234.581L158.522 234.6ZM158.522 213.232V196.835H190.527V213.232H158.522ZM158.522 191.874V175.477H190.527V191.874H158.522ZM158.522 170.516V154.118H190.527V170.516H158.522ZM158.522 149.158V132.76H190.527V149.158H158.522ZM158.522 127.799V111.392H190.527V127.799H158.522ZM158.522 106.432V90.0342H190.527V106.46L158.522 106.432ZM158.522 85.0733V68.6759H190.527V85.0733H158.522ZM158.522 63.715V47.3177H190.527V63.715H158.522ZM158.522 384.118V367.758H190.527V384.155L158.522 384.118Z" fill="url(#paint2_linear)"/>
<path d="M148.011 305.898C148.37 306.062 148.761 306.143 149.155 306.135C156.153 306.507 163.093 304.68 169.004 300.909C170.621 299.868 172.341 298.154 171.774 296.318C169.884 295.367 167.823 294.804 165.713 294.662C163.603 294.521 161.486 294.804 159.486 295.494C159.157 295.653 158.781 295.69 158.427 295.598C158.198 295.472 158.018 295.272 157.917 295.03C156.679 292.455 158.153 289.795 154.439 289.653C152.388 289.697 150.424 290.492 148.919 291.887C146.697 294.14 144.949 304.242 148.011 305.898Z" fill="#606161"/>
<path d="M148.011 305.898C148.37 306.062 148.761 306.143 149.155 306.135C156.153 306.507 163.093 304.68 169.004 300.909C170.621 299.868 172.341 298.154 171.774 296.318C169.884 295.367 167.823 294.804 165.713 294.662C163.603 294.521 161.486 294.804 159.486 295.494C159.157 295.653 158.781 295.69 158.427 295.598C158.198 295.472 158.018 295.272 157.917 295.03C156.679 292.455 158.153 289.795 154.439 289.653C152.388 289.697 150.424 290.492 148.919 291.887C146.697 294.14 144.949 304.242 148.011 305.898Z" fill="url(#paint3_linear)"/>
<path d="M154.713 261.374C154.35 261.449 153.973 261.433 153.618 261.325C153.263 261.218 152.941 261.023 152.68 260.758C152.454 260.325 152.381 259.828 152.473 259.348C152.716 256.286 153.241 253.253 154.042 250.288C154.127 249.801 154.343 249.346 154.665 248.972C154.997 248.691 155.388 248.49 155.809 248.385L161.717 246.396C161.83 247.4 161.962 248.404 162.142 249.398C162.166 249.779 162.308 250.143 162.549 250.439C162.855 250.693 163.23 250.848 163.626 250.884C165.34 251.225 167.038 251.635 168.721 252.115C170.013 252.424 171.239 252.962 172.341 253.705C177.341 257.492 171.396 257.691 168.834 258.524C164.267 260.071 159.522 261.029 154.713 261.374Z" fill="#606161"/>
<path d="M154.713 261.374C154.35 261.449 153.973 261.433 153.618 261.325C153.263 261.218 152.941 261.023 152.68 260.758C152.454 260.325 152.381 259.828 152.473 259.348C152.716 256.286 153.241 253.253 154.042 250.288C154.127 249.801 154.343 249.346 154.665 248.972C154.997 248.691 155.388 248.49 155.809 248.385L161.717 246.396C161.83 247.4 161.962 248.404 162.142 249.398C162.166 249.779 162.308 250.143 162.549 250.439C162.855 250.693 163.23 250.848 163.626 250.884C165.34 251.225 167.038 251.635 168.721 252.115C170.013 252.424 171.239 252.962 172.341 253.705C177.341 257.492 171.396 257.691 168.834 258.524C164.267 260.071 159.522 261.029 154.713 261.374Z" fill="url(#paint4_linear)"/>
<path d="M144.797 101.651C144.939 102.919 144.145 104.074 143.625 105.239C142.623 107.454 142.557 109.972 142.066 112.33C141.574 114.687 140.421 117.196 138.19 118.152C136.366 118.928 133.748 118.824 133.058 120.689C132.623 121.892 133.351 123.283 132.897 124.476C132.339 125.963 130.383 126.256 128.795 126.152C126.583 126.01 124.239 125.47 122.689 123.889C121.563 122.567 120.78 120.987 120.411 119.288C118.61 113.093 117.656 106.682 117.575 100.231C117.528 97.1158 117.736 93.8401 119.39 91.1892C122.972 85.452 131.432 85.168 137.084 87.6958C138.078 88.1105 138.953 88.765 139.633 89.6008C140.312 90.4367 140.775 91.4279 140.979 92.4863C141.414 94.1052 141.357 95.8188 142.113 97.3525C142.869 98.8862 144.589 99.8992 144.797 101.651Z" fill="#F4A982"/>
<path d="M139.551 92.2591C138.417 94.2377 136.943 96.046 135.837 97.9395C134.382 100.549 133.577 103.472 133.493 106.46C133.181 106.791 132.547 106.564 132.321 106.185C132.094 105.807 131.952 105.333 131.678 104.974C130.733 103.705 128.455 104.974 128.398 106.602C128.341 108.23 129.523 109.518 130.638 110.654C128.114 112.548 129.419 116.921 127.424 119.383C125.43 121.844 121.479 121.021 118.464 119.932C117.524 119.69 116.67 119.192 115.997 118.493C115.559 117.851 115.265 117.121 115.137 116.353L112.301 104.548C111.308 100.42 110.325 96.0271 111.677 92.0034C113.029 87.9798 116.592 84.9692 119.967 82.271C121.38 80.9442 123.087 79.971 124.948 79.4308C127.623 78.8628 130.137 80.0841 132.68 80.6995C134.287 81.0876 136.272 80.974 137.793 81.5894C142.179 83.4071 141.499 88.8887 139.551 92.2591Z" fill="#606161"/>
<path d="M139.551 92.2591C138.417 94.2377 136.943 96.046 135.837 97.9395C134.382 100.549 133.577 103.472 133.493 106.46C133.181 106.791 132.547 106.564 132.321 106.185C132.094 105.807 131.952 105.333 131.678 104.974C130.733 103.705 128.455 104.974 128.398 106.602C128.341 108.23 129.523 109.518 130.638 110.654C128.114 112.548 129.419 116.921 127.424 119.383C125.43 121.844 121.479 121.021 118.464 119.932C117.524 119.69 116.67 119.192 115.997 118.493C115.559 117.851 115.265 117.121 115.137 116.353L112.301 104.548C111.308 100.42 110.325 96.0271 111.677 92.0034C113.029 87.9798 116.592 84.9692 119.967 82.271C121.38 80.9442 123.087 79.971 124.948 79.4308C127.623 78.8628 130.137 80.0841 132.68 80.6995C134.287 81.0876 136.272 80.974 137.793 81.5894C142.179 83.4071 141.499 88.8887 139.551 92.2591Z" fill="url(#paint5_linear)"/>
<path d="M169.014 133.915C168.919 132.022 168.607 130.062 169.505 128.443C170.81 126.114 174.156 125.669 176.566 126.786C177.345 127.104 178.038 127.603 178.586 128.242C179.135 128.881 179.525 129.641 179.723 130.46C179.866 131.821 179.532 133.19 178.778 134.332C178.097 135.506 177.228 136.566 176.575 137.749C175.46 139.785 173.201 146.128 169.638 143.685C167.086 141.943 169.137 136.396 169.014 133.915Z" fill="#F4A982"/>
<path d="M171.462 209.209C172.367 211.551 172.663 214.086 172.322 216.574C171.594 225.701 168.163 234.363 164.76 242.875C164.377 243.963 163.849 244.995 163.191 245.942C160.79 249.019 156.263 249.123 152.369 248.943L152.094 231.561C152.193 229.697 151.9 227.833 151.234 226.089C150.294 224.313 148.842 222.861 147.066 221.923C143.077 219.575 138.323 218.686 134.514 216.054C129.721 212.74 127.245 206.586 127.802 200.84C128.615 192.508 134.003 190.852 141.65 191.278C146.943 191.571 150.157 194.042 154.401 196.892C159.732 200.461 168.617 203.027 171.462 209.209Z" fill="#606161"/>
<path d="M171.462 209.209C172.367 211.551 172.663 214.086 172.322 216.574C171.594 225.701 168.163 234.363 164.76 242.875C164.377 243.963 163.849 244.995 163.191 245.942C160.79 249.019 156.263 249.123 152.369 248.943L152.094 231.561C152.193 229.697 151.9 227.833 151.234 226.089C150.294 224.313 148.842 222.861 147.066 221.923C143.077 219.575 138.323 218.686 134.514 216.054C129.721 212.74 127.245 206.586 127.802 200.84C128.615 192.508 134.003 190.852 141.65 191.278C146.943 191.571 150.157 194.042 154.401 196.892C159.732 200.461 168.617 203.027 171.462 209.209Z" fill="url(#paint6_linear)"/>
<path d="M115.704 217.72C121.375 228.134 131.99 237.544 139.911 246.415C140.953 247.475 141.84 248.677 142.548 249.984C143.559 252.086 144.202 261.667 144.221 264.006L144.438 290.628C144.396 291.38 144.488 292.133 144.712 292.853C144.989 293.466 145.403 294.007 145.923 294.434C146.443 294.861 147.054 295.162 147.709 295.314C151.187 296.261 154.949 294.216 157 291.234C159.051 288.251 159.722 284.606 160.242 280.99C162.291 265.957 162.608 250.738 161.187 235.632C161.028 232.085 160.366 228.579 159.221 225.218C157.782 221.917 155.907 218.825 153.645 216.025L140.969 198.776C139.117 195.984 136.869 193.478 134.296 191.334C128.899 187.264 115.496 185.881 111.885 193.228C107.688 201.796 111.649 210.298 115.704 217.72Z" fill="#606161"/>
<path d="M115.704 217.72C121.375 228.134 131.99 237.544 139.911 246.415C140.953 247.475 141.84 248.677 142.548 249.984C143.559 252.086 144.202 261.667 144.221 264.006L144.438 290.628C144.396 291.38 144.488 292.133 144.712 292.853C144.989 293.466 145.403 294.007 145.923 294.434C146.443 294.861 147.054 295.162 147.709 295.314C151.187 296.261 154.949 294.216 157 291.234C159.051 288.251 159.722 284.606 160.242 280.99C162.291 265.957 162.608 250.738 161.187 235.632C161.028 232.085 160.366 228.579 159.221 225.218C157.782 221.917 155.907 218.825 153.645 216.025L140.969 198.776C139.117 195.984 136.869 193.478 134.296 191.334C128.899 187.264 115.496 185.881 111.885 193.228C107.688 201.796 111.649 210.298 115.704 217.72Z" fill="url(#paint7_linear)"/>
<path d="M82.4133 215.628C82.3863 216.915 82.7523 218.18 83.4625 219.254C84.8141 221.09 87.3473 221.554 89.6347 221.668C91.4903 221.897 93.3728 221.602 95.0697 220.816C96.6955 219.916 97.9054 217.976 97.2815 216.167C96.6577 214.359 94.6633 213.46 93.9544 211.727C93.6261 210.621 93.5614 209.454 93.7653 208.319C94.6444 198.577 82.2526 209.171 82.4133 215.628Z" fill="#F4A982"/>
<path d="M127.765 123.236C122.906 122.232 117.273 122.403 113.709 125.868C110.959 128.547 110.07 132.58 109.446 136.377C107.868 146.657 106.921 157.024 106.611 167.42C106.422 172.324 106.308 177.275 107.367 182.066C108.426 186.856 110.751 191.533 114.655 194.478C119.381 198.075 125.676 198.691 131.612 199.107C135.808 199.401 140.601 199.448 143.521 196.409C144.688 195.065 145.541 193.477 146.017 191.76C147.51 187.112 147.85 182.18 148.106 177.313C148.484 169.803 148.66 162.286 148.635 154.762C148.635 147.889 148.342 140.561 145.204 134.303C141.858 127.619 134.825 124.694 127.765 123.236Z" fill="#F7F5FA"/>
<path d="M133.285 170.724C133.613 174.752 133.486 178.805 132.907 182.804C132.491 185.645 131.857 188.485 132.254 191.259C132.651 194.033 134.372 196.939 137.113 197.649C139.854 198.359 142.945 196.608 144.523 194.146C146.102 191.685 146.537 188.674 146.877 185.758C147.909 177.802 148.141 169.761 147.567 161.759C147.431 159.148 146.915 156.571 146.036 154.109C144.684 150.71 135.903 139.283 131.498 144.49C129.372 147.008 130.874 153.673 131.262 156.618C131.886 161.37 132.897 165.99 133.285 170.724Z" fill="url(#paint8_linear)"/>
<path d="M135.742 130.072C134.417 131.855 133.749 134.043 133.852 136.263C133.852 142.644 137.198 148.476 139.57 154.403C141.13 158.294 142.34 162.431 144.93 165.763C147.192 168.631 150.346 170.66 153.89 171.529C155.122 171.869 156.412 171.934 157.671 171.718C159.94 171.245 161.717 169.512 163.276 167.789C168.948 161.503 173.73 153.92 174.42 145.475C174.508 144.821 174.456 144.157 174.269 143.525C173.853 142.655 173.197 141.922 172.379 141.413C170.488 139.993 168.191 138.497 165.942 139.207C164.72 139.73 163.657 140.566 162.86 141.631L156.433 148.836C154.247 142.98 151.345 137.419 147.794 132.277C145.176 128.358 139.4 125.641 135.742 130.072Z" fill="#F7F5FA"/>
<path d="M120.08 123.255C119.998 123.472 119.998 123.711 120.08 123.927C120.196 124.084 120.353 124.206 120.534 124.278C125.389 126.616 130.687 127.887 136.073 128.008C135.607 126.973 135.243 125.895 134.986 124.789C134.825 124.088 134.92 121.949 134.485 121.475C133.805 120.737 130.402 120.898 129.315 120.765L124.059 120.112C121.148 119.714 120.761 120.339 120.08 123.255Z" fill="#F7F5FA"/>
<path d="M120.08 123.255C119.998 123.472 119.998 123.711 120.08 123.927C120.196 124.084 120.353 124.206 120.534 124.278C125.389 126.616 130.687 127.887 136.073 128.008C135.607 126.973 135.243 125.895 134.986 124.789C134.825 124.088 134.92 121.949 134.485 121.475C133.805 120.737 130.402 120.898 129.315 120.765L124.059 120.112C121.148 119.714 120.761 120.339 120.08 123.255Z" fill="url(#paint9_linear)"/>
<path d="M131.385 106.46C131.384 106.358 131.351 106.258 131.29 106.176C131.218 106.108 131.124 106.068 131.026 106.062C130.887 106.059 130.75 106.097 130.632 106.171C130.515 106.245 130.421 106.352 130.364 106.479C130.251 106.738 130.203 107.021 130.222 107.303C130.217 107.497 130.236 107.691 130.279 107.88C130.4 108.261 130.589 108.617 130.837 108.931C130.94 109.129 131.116 109.279 131.328 109.347C131.876 109.452 132.51 108.675 132.132 108.211C131.933 107.975 131.649 107.842 131.508 107.558C131.405 107.202 131.364 106.83 131.385 106.46Z" fill="url(#paint10_linear)"/>
<path opacity="0.24" d="M107.962 332.047C107.964 336.687 106.998 341.275 105.127 345.519C102.741 351.208 98.8674 356.148 93.9139 359.816C88.9603 363.485 83.1104 365.747 76.9807 366.365C70.851 366.982 64.6684 365.932 59.0846 363.325C53.5009 360.718 48.7227 356.651 45.2536 351.551C41.7846 346.452 39.7532 340.51 39.3735 334.351C38.9938 328.192 40.2799 322.045 43.0962 316.557C45.9125 311.069 50.1548 306.443 55.3759 303.168C60.597 299.893 66.6036 298.089 72.7626 297.946H73.6133C78.1046 297.925 82.556 298.79 86.7133 300.493C90.8706 302.195 94.6521 304.702 97.842 307.868C101.032 311.035 103.567 314.801 105.304 318.949C107.04 323.098 107.944 327.549 107.962 332.047Z" fill="#3C7FEA"/>
<path opacity="0.4" d="M107.962 332.047C107.964 336.687 106.998 341.275 105.127 345.519L72.7626 332.047V297.965H73.6133C78.103 297.944 82.5529 298.809 86.709 300.51C90.865 302.211 94.6457 304.716 97.8354 307.881C101.025 311.046 103.561 314.809 105.299 318.955C107.036 323.102 107.941 327.55 107.962 332.047Z" fill="#3C7FEA"/>
<path d="M293.054 138.327H235.651V92.117C235.677 91.8469 235.802 91.5961 236.002 91.4135C236.202 91.2309 236.463 91.1296 236.734 91.1296C237.004 91.1296 237.265 91.2309 237.466 91.4135C237.666 91.5961 237.791 91.8469 237.816 92.117V136.159H293.054C293.205 136.145 293.357 136.162 293.5 136.21C293.644 136.258 293.776 136.336 293.887 136.438C293.999 136.54 294.089 136.664 294.15 136.803C294.211 136.942 294.243 137.091 294.243 137.243C294.243 137.394 294.211 137.544 294.15 137.683C294.089 137.822 293.999 137.946 293.887 138.048C293.776 138.15 293.644 138.227 293.5 138.275C293.357 138.324 293.205 138.341 293.054 138.327Z" fill="#3C7FEA"/>
<path d="M236.531 131.823C236.364 131.823 236.2 131.785 236.05 131.711C235.901 131.637 235.771 131.53 235.67 131.397C235.499 131.166 235.424 130.877 235.463 130.592C235.502 130.307 235.651 130.049 235.878 129.873L255.246 115.227H268.895L286.476 103.62C286.715 103.462 287.007 103.405 287.288 103.463C287.569 103.521 287.816 103.688 287.974 103.927C288.132 104.167 288.188 104.46 288.13 104.742C288.073 105.023 287.906 105.27 287.667 105.428L269.528 117.404H255.974L237.183 131.605C236.996 131.748 236.766 131.825 236.531 131.823Z" fill="#3C7FEA"/>
<path d="M283.385 102.398L289.538 102.19L287.893 108.429L283.385 102.398Z" fill="#3C7FEA"/>
<path d="M86.5155 206.028C86.2076 206.207 85.9477 206.458 85.7583 206.759C85.5689 207.061 85.4557 207.405 85.4285 207.76C85.4139 207.958 85.4673 208.155 85.5798 208.319C85.8822 208.698 86.4683 208.565 86.922 208.423C87.9978 208.048 89.1378 207.894 90.2743 207.968C91.4109 208.043 92.5209 208.346 93.5385 208.858C93.6864 208.97 93.8639 209.036 94.0489 209.048C94.4742 209.048 94.6444 208.48 94.6538 208.044C94.6633 207.437 94.6062 206.831 94.4837 206.236C94.4362 205.878 94.3182 205.533 94.1365 205.221C93.9548 204.909 93.7129 204.636 93.425 204.418C92.979 204.234 92.498 204.151 92.0161 204.174C91.5342 204.197 91.0633 204.325 90.6367 204.551C89.2157 204.899 87.8346 205.394 86.5155 206.028Z" fill="#F7F5FA"/>
</g>
<defs>
<linearGradient id="paint0_linear" x1="94.4175" y1="166.019" x2="281.821" y2="196.191" gradientUnits="userSpaceOnUse">
<stop stop-color="#010101" stop-opacity="0"/>
<stop offset="0.95" stop-color="#010101"/>
</linearGradient>
<linearGradient id="paint1_linear" x1="6485.95" y1="10690.4" x2="8425.07" y2="10690.4" gradientUnits="userSpaceOnUse">
<stop stop-color="#010101" stop-opacity="0"/>
<stop offset="0.95" stop-color="#010101"/>
</linearGradient>
<linearGradient id="paint2_linear" x1="11629.6" y1="85985.6" x2="890.076" y2="86123.6" gradientUnits="userSpaceOnUse">
<stop stop-color="#010101" stop-opacity="0"/>
<stop offset="0.95" stop-color="#010101"/>
</linearGradient>
<linearGradient id="paint3_linear" x1="6410.41" y1="5426" x2="6393.26" y2="5660.62" gradientUnits="userSpaceOnUse">
<stop stop-color="#010101" stop-opacity="0"/>
<stop offset="0.95" stop-color="#010101"/>
</linearGradient>
<linearGradient id="paint4_linear" x1="5714.7" y1="4196.29" x2="5618.91" y2="4353.37" gradientUnits="userSpaceOnUse">
<stop stop-color="#010101" stop-opacity="0"/>
<stop offset="0.95" stop-color="#010101"/>
</linearGradient>
<linearGradient id="paint5_linear" x1="5854.21" y1="4240.78" x2="7093.09" y2="4549.57" gradientUnits="userSpaceOnUse">
<stop stop-color="#010101" stop-opacity="0"/>
<stop offset="0.95" stop-color="#010101"/>
</linearGradient>
<linearGradient id="paint6_linear" x1="11561.9" y1="13443.2" x2="10284.1" y2="13598.1" gradientUnits="userSpaceOnUse">
<stop stop-color="#010101" stop-opacity="0"/>
<stop offset="0.95" stop-color="#010101"/>
</linearGradient>
<linearGradient id="paint7_linear" x1="12171.5" y1="25421.4" x2="7956.23" y2="28748.1" gradientUnits="userSpaceOnUse">
<stop stop-color="#010101" stop-opacity="0"/>
<stop offset="0.95" stop-color="#010101"/>
</linearGradient>
<linearGradient id="paint8_linear" x1="4029.43" y1="9994.56" x2="6326.17" y2="9858.37" gradientUnits="userSpaceOnUse">
<stop stop-color="#010101" stop-opacity="0"/>
<stop offset="0.95" stop-color="#010101"/>
</linearGradient>
<linearGradient id="paint9_linear" x1="3545.1" y1="1159.13" x2="3447.59" y2="1621.36" gradientUnits="userSpaceOnUse">
<stop stop-color="#010101" stop-opacity="0"/>
<stop offset="0.95" stop-color="#010101"/>
</linearGradient>
<linearGradient id="paint10_linear" x1="566.373" y1="482.862" x2="580.091" y2="482.097" gradientUnits="userSpaceOnUse">
<stop stop-color="#010101" stop-opacity="0"/>
<stop offset="0.95" stop-color="#010101"/>
</linearGradient>
<clipPath id="clip0">
<rect width="358" height="407" fill="white"/>
</clipPath>
</defs>
</svg>
