<svg width="360" height="267" viewBox="0 0 360 267" fill="none" xmlns="http://www.w3.org/2000/svg">
<g clip-path="url(#clip0)">
<path opacity="0.18" d="M219.324 9.87251C234.397 17.6835 246.906 29.4999 258.616 41.9612C274.48 58.8548 294.698 70.6802 313.162 84.3586C334.117 99.8716 354.2 119.781 358.918 145.43C360.927 156.329 359.964 167.637 357.536 178.463C354.764 191.2 349.77 203.35 342.781 214.357C328.417 236.591 305.353 252.577 280.053 260.506C254.752 268.435 227.451 268.68 201.469 263.521C187.896 260.842 174.486 256.709 160.649 256.355C150.167 256.083 139.74 257.99 129.385 259.37C97.4933 263.621 63.5197 262.586 35.3008 247.145C17.6822 237.409 2.29092 220.788 0.245409 200.733C-2.10011 177.755 12.7275 157.955 27.7461 142.296C40.006 129.571 50.6891 115.419 59.5651 100.144C63.4925 93.4502 67.5289 88.146 69.9381 80.5439C72.2472 73.2779 73.6745 65.7484 76.3928 58.6004C79.5029 50.469 84.2775 43.0756 90.4113 36.8931C100.357 26.9023 113.339 20.5445 126.049 14.3956C133.503 10.7626 140.976 7.18407 148.831 4.60462C166.974 -1.3 186.489 -1.53447 204.769 3.93251C209.794 5.45774 214.667 7.44629 219.324 9.87251Z" fill="#F7F5FA"/>
<path d="M179.695 234.394C181.097 234.742 182.401 235.407 183.505 236.337C186.377 239.062 184.977 244.275 181.795 246.646C178.614 249.017 174.413 249.371 170.459 249.725C157.323 250.85 144.258 252.687 131.321 255.229C118.73 257.709 105.957 260.851 93.0296 260.379C88.484 260.215 77.3019 259.997 74.02 256.31C69.8018 251.569 78.8111 246.074 82.5657 243.476C98.0207 232.75 116.148 235.184 134.012 232.486C149.149 230.197 164.959 229.643 179.695 234.394Z" fill="url(#paint0_linear)"/>
<path d="M243.606 208.563C241.506 209.217 239.37 210.27 238.233 212.15C237.68 213.262 237.241 214.428 236.924 215.629C236.175 217.726 234.972 219.631 233.4 221.209C231.829 222.787 229.928 223.998 227.833 224.757C226.633 225.184 225.288 225.52 224.542 226.574C224.186 227.14 224.005 227.799 224.021 228.467C224.037 229.136 224.25 229.785 224.633 230.334C225.42 231.413 226.489 232.256 227.724 232.768C232.151 234.839 237.306 234.839 242.106 233.894C246.906 232.949 251.479 231.169 256.143 229.653C262.173 227.752 268.371 226.429 274.652 225.702C279.625 225.129 284.653 224.921 289.453 223.395C294.253 221.869 298.78 218.772 300.617 214.121C294.671 208.027 285.162 207.291 276.698 207.945C265.87 208.763 254.216 205.275 243.606 208.563Z" fill="url(#paint1_linear)"/>
<path d="M32.8736 199.825C30.7735 200.488 28.6371 201.533 27.5007 203.413C26.944 204.525 26.5023 205.69 26.1825 206.892C25.438 208.991 24.2363 210.898 22.6641 212.477C21.0919 214.055 19.1885 215.265 17.0913 216.02C15.9004 216.446 14.5549 216.783 13.8003 217.836C13.4488 218.404 13.2702 219.062 13.2863 219.73C13.3024 220.397 13.5126 221.046 13.8913 221.596C14.6742 222.683 15.7489 223.527 16.9913 224.03C21.4187 226.101 26.5734 226.101 31.3735 225.157C36.1736 224.212 40.7465 222.432 45.4102 220.915C51.4408 219.015 57.6385 217.692 63.9198 216.964C68.8836 216.392 73.92 216.183 78.7202 214.666C83.5203 213.149 88.0477 210.034 89.8841 205.384C83.9385 199.29 74.4292 198.554 65.9653 199.208C55.1287 199.998 43.4738 196.474 32.8736 199.825Z" fill="url(#paint2_linear)"/>
<path d="M120.703 187.618C115.157 188.618 109.466 189.707 104.684 192.687C103.039 193.704 101.439 195.13 101.203 197.028C100.939 199.144 102.539 201.124 104.475 202.014C106.48 202.763 108.622 203.073 110.757 202.923L135.722 203.077L154.204 203.186C156.44 203.186 159.013 202.859 161.213 203.186C165.241 203.858 168.732 205.82 173.032 206.02C178.568 206.283 184.086 205.257 189.496 204.203C192.878 203.549 196.341 202.859 199.296 201.07C200.487 200.352 201.678 199.253 201.587 197.854C201.461 197.016 201.046 196.249 200.414 195.684C196.205 191.342 189.305 191.696 183.405 190.361C177.132 188.935 171.468 185.321 165.113 184.267C162.196 183.886 159.25 183.776 156.313 183.94C151.067 184.067 145.767 183.368 140.594 184.176C133.94 185.293 127.33 186.51 120.703 187.618Z" fill="url(#paint3_linear)"/>
<path d="M154.568 178.99C149.913 177.936 150.822 184.539 149.595 186.983C148.829 188.235 147.858 189.349 146.722 190.28C145.579 191.22 144.832 192.556 144.631 194.022C144.602 194.296 144.659 194.572 144.795 194.812C145.02 195.103 145.343 195.303 145.704 195.375C148.361 196.148 151.214 195.865 153.668 194.585C154.814 194.037 155.765 193.153 156.395 192.051C156.903 190.868 157.142 189.586 157.095 188.3C157.231 185.548 158.449 179.844 154.568 178.99Z" fill="#FDB9A9"/>
<path d="M150.413 192.559C150.413 192.559 137.167 193.122 142.776 197.282C148.386 201.442 156.777 196.274 157.613 195.284C158.449 194.294 157.768 192.714 157.768 192.714L150.413 192.559Z" fill="#F7F5FA"/>
<path d="M157.04 194.376C155.858 195.811 149.631 197.745 146.886 197.546C144.14 197.346 141.658 196.065 141.922 194.285C142.185 192.505 147.058 188.372 147.976 188.381C148.895 188.39 149.613 190.507 151.458 190.943C152.279 191.08 153.12 191.006 153.903 190.726C154.687 190.446 155.385 189.97 155.931 189.344C156.099 189.114 156.34 188.95 156.616 188.879C156.891 188.807 157.182 188.834 157.44 188.954C157.817 189.822 157.978 190.77 157.908 191.714C157.838 192.658 157.541 193.572 157.04 194.376Z" fill="white"/>
<path d="M170.532 181.597C165.877 180.516 166.786 187.11 165.559 189.553C164.795 190.809 163.824 191.927 162.686 192.859C161.549 193.805 160.804 195.138 160.595 196.601C160.566 196.875 160.623 197.151 160.759 197.391C160.984 197.682 161.307 197.882 161.668 197.954C164.325 198.722 167.177 198.439 169.632 197.164C170.773 196.61 171.723 195.728 172.359 194.63C172.867 193.447 173.106 192.166 173.059 190.879C173.195 188.1 174.413 182.423 170.532 181.597Z" fill="#FDB9A9"/>
<path d="M166.413 195.112C166.413 195.112 153.167 195.666 158.777 199.834C164.386 204.003 172.768 198.817 173.577 197.873C174.386 196.928 173.732 195.293 173.732 195.293L166.413 195.112Z" fill="#F7F5FA"/>
<path d="M173.004 196.91C171.823 198.354 165.604 200.28 162.85 200.089C160.095 199.898 157.622 198.608 157.886 196.828C158.149 195.048 163.022 190.906 163.941 190.924C164.859 190.943 165.586 193.05 167.422 193.477C168.244 193.614 169.087 193.54 169.872 193.26C170.656 192.98 171.356 192.504 171.904 191.878C172.07 191.649 172.31 191.485 172.584 191.414C172.858 191.342 173.148 191.369 173.404 191.488C173.781 192.356 173.942 193.304 173.872 194.248C173.802 195.192 173.505 196.106 173.004 196.91Z" fill="white"/>
<path d="M158.531 121.579L164.759 186.974L173.723 185.865C177.268 169.907 176.395 122.142 176.395 122.142L158.531 121.579Z" fill="#473F47"/>
<path d="M164.759 119.808L158.531 185.202L149.504 184.122C144.376 142.723 148.595 116.911 148.595 116.911L164.759 119.808Z" fill="#473F47"/>
<path d="M149.431 96.148C149.322 94.9491 149.004 93.7593 148.876 92.515C148.585 90.0437 148.631 87.5444 149.013 85.0854C149.436 82.4719 150.225 79.931 151.358 77.5378C152.395 75.4579 154.258 74.5769 156.368 73.5415C158.125 72.5891 160.03 71.9412 162.004 71.6251C163.402 71.4988 164.811 71.5784 166.186 71.8612C170.413 72.6605 175.986 74.8403 178.914 78.219C181.086 80.7167 181.341 84.3043 181.405 87.6195C181.495 92.185 181.402 96.7504 181.123 101.316C181.123 101.979 181.05 102.642 180.995 103.305C180.605 108.31 180.195 113.505 178.768 118.346C178.323 119.863 177.859 121.388 176.441 122.206C173.132 124.122 168.068 123.114 164.495 122.569C159.759 121.897 154.886 121.198 150.686 118.936C149.809 118.556 149.099 117.872 148.686 117.011C148.322 115.984 148.767 114.867 149.086 113.823C150.504 109.145 149.404 104.231 149.404 99.4631C149.404 98.6003 149.513 97.7193 149.513 96.8564C149.504 96.5839 149.431 96.366 149.431 96.148Z" fill="white"/>
<path opacity="0.1" d="M160.94 77.6741C161.412 76.7811 161.972 75.9382 162.613 75.1582C162.694 75.0522 162.801 74.968 162.922 74.913C163.033 74.8857 163.148 74.8857 163.259 74.913L167.313 75.5578C167.503 75.5667 167.686 75.6297 167.841 75.7395C167.969 75.8506 168.063 75.9953 168.113 76.1573C168.363 77.1332 168.226 78.1677 167.732 79.0455C166.55 81.3148 165.153 83.4651 163.559 85.4669C162.648 86.6915 161.871 88.0099 161.24 89.3996C160.94 90.099 160.84 90.8892 160.549 91.5885C160.259 92.2879 159.64 91.9246 159.122 91.8065L152.867 90.4895L149.74 89.8356C149.286 89.7448 148.931 89.7448 149.167 89.2089C149.25 89.0512 149.364 88.9115 149.501 88.7977C149.639 88.6839 149.797 88.5983 149.967 88.5459C150.459 88.4216 150.961 88.3426 151.467 88.3097C152.505 88.054 153.478 87.5836 154.322 86.9292C154.99 86.4986 155.625 86.0189 156.222 85.4941C158.477 83.4324 159.504 80.3807 160.94 77.6741Z" fill="#020202"/>
<path d="M154.131 73.6868C154.555 73.1142 155.123 72.6631 155.777 72.3789C157.259 71.8703 158.731 73.1146 160.259 73.4688C161.404 73.7231 162.831 73.5778 163.513 74.5406C163.715 74.9502 163.82 75.4008 163.82 75.8575C163.82 76.3142 163.715 76.7649 163.513 77.1745C162.23 81.2799 160.65 85.2868 158.786 89.1635C158.04 90.7166 157.068 92.1062 156.277 93.5958C155.368 95.2397 155.177 96.9745 153.895 98.4459C152.613 99.9172 150.258 100.953 148.358 100.199C147.407 99.7809 146.601 99.0922 146.04 98.2188C143.667 94.7947 145.322 91.1435 146.631 87.7103C147.576 85.2943 153.658 74.2136 154.131 73.6868Z" fill="white"/>
<path opacity="0.1" d="M174.577 122.751C172.986 123.041 171.095 124.186 169.45 123.877C167.623 123.004 165.65 122.478 163.631 122.324C160.904 122.006 158.059 120.771 155.449 119.935C154.348 119.683 153.326 119.162 152.477 118.418C150.886 116.765 151.358 114.113 151.686 111.843C152.157 108.523 152.087 105.149 151.477 101.852C151.238 100.299 150.833 98.7764 150.267 97.3105C149.767 96.1661 148.986 95.4214 149.176 94.059C149.34 92.8601 150.167 91.4523 151.513 91.3342C152.225 91.3592 152.919 91.5723 153.522 91.9518C155.23 92.8686 157.07 93.5151 158.977 93.8682C161.296 94.1544 163.649 93.7772 165.762 92.7803C167.875 91.7835 169.661 90.2081 170.913 88.2371C172.159 86.2752 173.395 77.2199 176.877 78.4733C178.002 78.9525 179.009 79.6714 179.827 80.5797C180.645 81.4881 181.255 82.5639 181.614 83.7321C182.295 86.0908 182.578 88.5465 182.45 90.9982C182.377 97.3559 181.114 103.85 180.305 110.162C179.986 112.551 179.614 121.425 176.45 122.206C175.804 122.333 175.195 122.624 174.577 122.751Z" fill="#020202"/>
<path d="M152.004 87.3652C151.422 87.0032 150.76 86.7913 150.076 86.7485C149.392 86.7057 148.708 86.8334 148.086 87.1199C147.473 87.4275 146.956 87.8962 146.591 88.4756C146.226 89.0551 146.026 89.7232 146.013 90.4078C146.073 91.3404 146.387 92.2388 146.922 93.0054C147.211 93.5093 147.605 93.9458 148.076 94.2861C148.822 94.7313 149.696 94.9136 150.558 94.8038C151.338 94.7757 152.1 94.5674 152.786 94.1952C153.804 93.623 155.122 91.9882 154.786 90.7075C154.209 89.3435 153.241 88.1806 152.004 87.3652Z" fill="#FDB9A9"/>
<path d="M180.05 79.5087C183.886 85.8665 185.223 93.3415 186.487 100.644C186.707 101.535 186.748 102.462 186.605 103.369C186.366 104.173 185.921 104.9 185.313 105.479C184.706 106.057 183.956 106.467 183.141 106.666C181.509 107.048 179.822 107.137 178.159 106.929C174.586 106.702 170.35 106.393 167.322 104.322C166.277 103.614 165.359 102.733 164.295 102.052C163.257 101.444 162.179 100.907 161.068 100.444C158.949 99.4616 156.928 98.2817 155.031 96.92C154.379 96.5196 153.835 95.9642 153.449 95.3033C152.831 94.0681 153.313 92.5785 153.795 91.307C153.884 90.9757 154.082 90.6844 154.358 90.4805C154.737 90.326 155.162 90.326 155.54 90.4805C160.654 92.0007 165.866 93.1661 171.141 93.9682C172.586 94.1952 171.95 92.6058 171.759 91.7793C171.441 90.6223 171.186 89.4489 170.995 88.2643C170.808 86.5591 171.042 84.834 171.676 83.2397C172.309 81.6454 173.324 80.2304 174.632 79.1182C175.305 78.4923 176.156 78.0921 177.068 77.9738C177.646 78.0034 178.21 78.1557 178.725 78.4203C179.239 78.685 179.691 79.056 180.05 79.5087Z" fill="white"/>
<path d="M160.649 64.6315C160.512 63.9995 160.415 63.3594 160.359 62.7151C160.049 59.9903 159.786 57.1565 161.122 54.8132C161.675 53.8283 162.481 53.0083 163.456 52.4376C164.432 51.8668 165.542 51.566 166.672 51.566C167.803 51.566 168.913 51.8668 169.888 52.4376C170.864 53.0083 171.669 53.8283 172.223 54.8132C173.003 56.2813 173.341 57.9439 173.195 59.5998C173.047 61.2476 172.743 62.8777 172.286 64.468C171.85 66.1574 170.741 67.1928 170.104 68.7459C169.887 69.4141 169.786 70.1144 169.804 70.8167C169.896 71.8653 169.896 72.9198 169.804 73.9684C168.768 74.6487 167.583 75.0693 166.35 75.1945C165.771 75.185 165.198 75.087 164.65 74.9039C164.34 74.8425 164.066 74.6634 163.886 74.4043C163.804 74.1773 163.786 73.9327 163.831 73.6959C163.831 73.4688 163.886 73.2508 163.886 73.0238C164.013 71.8908 163.995 70.7462 163.831 69.6178C163.463 68.7363 162.855 67.975 162.077 67.4198C161.323 66.661 160.824 65.6864 160.649 64.6315Z" fill="#FDB9A9"/>
<path opacity="0.1" d="M161.322 65.8667C162.551 65.7126 163.767 65.4667 164.959 65.131C165.368 65.013 165.868 64.913 166.177 65.2037C166.316 65.3642 166.41 65.5584 166.45 65.7668C166.598 66.1738 166.666 66.6056 166.65 67.0384C166.577 67.3998 166.477 67.7551 166.35 68.101C166.291 68.2738 166.27 68.4569 166.287 68.6385C166.305 68.82 166.36 68.9958 166.45 69.1546C166.741 69.5542 167.359 69.6814 167.495 70.1628C167.632 70.6441 167.277 70.8349 167.168 71.1709C167.05 71.5746 166.967 71.988 166.922 72.4062C166.913 72.889 166.84 73.3686 166.704 73.8321C166.606 74.0704 166.454 74.2828 166.26 74.4529C166.066 74.623 165.835 74.7462 165.586 74.813C165.334 74.8745 165.072 74.8786 164.819 74.8252C164.566 74.7717 164.328 74.662 164.122 74.5042C163.595 73.9391 163.275 73.2125 163.213 72.4425L162.722 69.9993C162.578 69.1491 162.359 68.3133 162.068 67.5016C161.774 66.9383 161.433 66.4006 161.05 65.894L161.322 65.8667Z" fill="#020202"/>
<path d="M83.9294 112.733C83.9294 112.733 84.493 115.012 79.0838 116.72C73.6746 118.427 71.6745 112.733 71.6745 112.733C71.6745 112.733 81.9293 108.745 83.9294 112.733Z" fill="#2F3554"/>
<path d="M56.1105 170.343L56.7378 167.937L58.3742 161.733C58.4218 161.438 58.5545 161.164 58.756 160.943C59.0015 160.734 59.7651 163.086 60.0924 163.059C61.8777 162.957 63.6686 163.089 65.4198 163.45C65.8926 163.541 63.9743 190.207 63.8107 192.823C63.4198 198.817 63.738 210.67 64.6198 210.597C62.8652 210.743 59.2742 210.942 58.5197 210.152C57.156 208.79 59.4924 200.007 56.9469 189.698C56.3208 187.164 55.9733 184.569 55.9105 181.96C55.8105 178.173 55.1741 174.031 56.1105 170.343Z" fill="#EFAC88"/>
<path d="M68.6563 200.007C68.8551 199.648 69.0195 199.271 69.1472 198.881C69.5654 197.546 69.2472 196.156 69.3381 194.812C69.3927 194.101 69.3927 193.388 69.3381 192.677C69.1927 190.861 68.9563 189.044 68.729 187.228C68.3381 184.167 67.6199 180.979 67.6199 177.882C67.6199 175.493 69.5472 167.991 69.5472 167.991L67.6199 158.209H77.402C77.402 158.209 78.6565 166.383 78.3111 167.292C77.5985 169.147 77.1783 171.102 77.0656 173.086C77.0656 176.601 76.5928 180.162 76.3201 183.668C76.011 187.5 75.708 191.333 75.411 195.166C75.3019 196.547 75.1837 197.891 75.0746 199.299C74.9912 201.327 75.3672 203.348 76.1747 205.211C76.4837 206.056 76.8292 207.101 76.2383 207.791C75.6474 208.481 74.3564 208.245 73.511 207.791C72.3094 206.985 71.0376 206.289 69.7109 205.711C69.184 205.591 68.6803 205.385 68.2199 205.102C67.3108 204.412 67.3108 203.032 67.729 201.969C68.0011 201.298 68.3107 200.643 68.6563 200.007Z" fill="#EFAC88"/>
<path d="M74.9564 85.5759C74.9564 85.5759 73.8473 82.6513 76.3656 85.5759C78.8838 88.5005 82.9294 105.794 82.9294 105.794C82.9294 105.794 77.2656 110.989 75.6564 109.963C74.0473 108.936 74.9564 85.5759 74.9564 85.5759Z" fill="#2F3554"/>
<path d="M72.5291 57.9921C75.7019 59.3 76.4747 63.9957 76.2474 66.9657C75.9656 70.6805 72.8473 74.3952 73.92 78.1282C74.6198 80.0407 74.9469 82.0692 74.8837 84.1045C74.6837 86.1299 73.4291 88.2007 71.4564 88.6458C70.9849 88.7066 70.5234 88.8287 70.0836 89.0091C69.5204 89.4144 69.0851 89.9722 68.829 90.6167C66.9919 94.3313 63.7552 97.1664 59.8288 98.5004C55.9105 99.6902 51.274 98.7728 48.5012 95.7756C45.7284 92.7783 45.2921 87.683 47.9285 84.5586C48.6831 83.6504 49.7013 82.8238 49.7467 81.6613C49.7198 81.1244 49.6375 80.5918 49.5013 80.0718C49.3554 79.0649 49.5297 78.0375 49.9994 77.1348C50.4692 76.232 51.2107 75.4994 52.1195 75.0401C53.5923 74.3317 55.465 74.368 56.6014 73.2236C57.8742 71.9066 57.5651 69.8085 57.5105 67.9829C56.9378 58.4372 64.1471 54.5498 72.5291 57.9921Z" fill="#8B2F0C"/>
<path d="M51.8559 137.755C51.0922 145.203 52.4195 152.823 53.7559 160.253C54.065 161.997 54.4468 163.886 55.7469 165.085C56.7686 165.903 57.9828 166.447 59.2742 166.665C67.7539 168.628 76.6471 167.7 84.5385 164.031L82.5294 145.503C82.0021 140.571 81.4293 135.512 79.6566 130.862C79.3293 129.999 74.2019 121.425 75.4201 120.689C73.0019 122.179 70.1927 121.961 67.4199 122.605C64.1387 123.375 60.981 124.598 58.0378 126.238C56.5298 126.903 55.2219 127.95 54.2443 129.276C53.2667 130.601 52.6532 132.159 52.465 133.795C52.1897 135.103 51.9863 136.425 51.8559 137.755Z" fill="#F7F5FA"/>
<path d="M51.8559 137.755C51.0922 145.203 52.4195 152.823 53.7559 160.253C54.065 161.997 54.4468 163.886 55.7469 165.085C56.7686 165.903 57.9828 166.447 59.2742 166.665C67.7539 168.628 76.6471 167.7 84.5385 164.031L82.5294 145.503C82.0021 140.571 81.4293 135.512 79.6566 130.862C79.3293 129.999 74.2019 121.425 75.4201 120.689C73.0019 122.179 70.1927 121.961 67.4199 122.605C64.1387 123.375 60.981 124.598 58.0378 126.238C56.5298 126.903 55.2219 127.95 54.2443 129.276C53.2667 130.601 52.6532 132.159 52.465 133.795C52.1897 135.103 51.9863 136.425 51.8559 137.755Z" fill="url(#paint4_linear)"/>
<path d="M72.3655 77.674C72.3655 77.674 69.9018 80.7985 69.8927 82.7149C69.8667 83.9841 69.6928 85.246 69.3745 86.475C69.3745 86.475 68.9836 88.7639 67.7108 87.8738C66.438 86.9837 61.9652 80.9892 61.9652 80.9892L66.8471 74.4861L72.3655 77.674Z" fill="#EFAC88"/>
<path d="M79.9475 132.869C79.9475 132.869 78.9475 121.743 77.0929 117.283C76.578 115.667 76.4534 113.952 76.7292 112.279C77.1019 108.337 78.302 104.558 78.9475 100.662C79.144 98.9186 79.0145 97.1539 78.5656 95.4577C77.8868 92.079 77.0929 88.7245 76.1837 85.3942C76.1037 84.9657 75.9195 84.5633 75.6474 84.2226C75.3372 83.9409 74.9674 83.7329 74.5655 83.6141L69.7018 81.7975C70.2109 83.3597 70.6927 85.1036 69.9927 86.5931C69.8214 87.0278 69.4985 87.3859 69.0836 87.6013C68.1745 87.9737 67.2653 87.3742 66.538 86.693C65.4371 85.6234 64.5865 84.3239 64.0471 82.8874C63.7743 82.138 63.5823 81.3616 63.4743 80.5714C63.4016 80.0083 63.5652 79.1908 63.138 78.8003C62.447 80.0174 61.0197 80.6168 59.9379 81.4615C58.856 82.3062 57.4651 83.278 56.156 84.1862C55.0645 84.7786 54.175 85.6831 53.6014 86.7839C53.3197 87.7137 53.3197 88.706 53.6014 89.6358C53.8286 90.6712 54.1832 91.6794 54.3741 92.7239C54.5561 94.052 54.6654 95.3892 54.7014 96.7293C54.9194 98.7223 55.2748 100.698 55.765 102.642C55.9496 103.83 56.0619 105.028 56.1014 106.23C56.1014 106.23 57.9196 112.987 57.556 114.64C57.1924 116.293 53.7923 122.678 53.6014 125.476C53.4104 128.273 54.6923 134.149 54.6923 134.149C54.6923 134.149 57.8378 134.358 61.3288 134.495C65.438 134.649 72.8928 132.914 73.4473 132.36C74.1746 131.634 74.5746 126.447 74.511 122.987C76.1656 128.364 77.4656 132.869 77.4656 132.869H79.9475Z" fill="#2F3554"/>
<path d="M55.7469 139.672C56.4287 139.871 56.656 140.48 57.1651 141.243C57.8468 142.304 58.4748 143.398 59.0469 144.522C59.1252 144.6 59.1692 144.706 59.1692 144.817C59.1692 144.928 59.1252 145.034 59.0469 145.112C58.9797 145.175 58.8933 145.213 58.8015 145.221C58.2194 145.431 57.5924 145.484 56.9833 145.375C56.7495 146.83 56.9718 148.321 57.6196 149.644C57.7742 149.962 57.9378 150.389 57.6833 150.643C57.5652 150.734 57.4228 150.788 57.2742 150.798C55.9739 150.881 54.6792 150.564 53.565 149.889C52.9182 149.605 52.3271 149.209 51.8195 148.718C51.1297 147.899 50.6243 146.942 50.3376 145.911C50.3376 145.256 50.4016 144.602 50.5285 143.959C50.5285 143.659 50.8376 139.744 50.9286 139.744L55.1468 139.581C55.3502 139.582 55.5523 139.612 55.7469 139.672Z" fill="#FDC099"/>
<path d="M55.7741 138.118L56.1105 139.817L50.2467 140.834V138.881L55.7741 138.118Z" fill="white"/>
<path d="M55.7741 115.784C55.7741 115.784 60.4379 104.577 59.8015 100.626C59.1651 96.6748 56.4832 87.456 54.5014 87.5377C52.5195 87.6194 51.8922 90.2625 51.8922 92.7148C51.8922 95.1671 47.9103 117.283 47.6558 119.327C47.4012 121.37 49.9013 140.217 49.9013 140.217L56.5378 138.754L55.7741 115.784Z" fill="#2F3554"/>
<path d="M73.62 61.1074C73.7267 61.1698 73.8195 61.2533 73.8928 61.3527C74.3653 62.1694 74.674 63.0702 74.8019 64.0048C76.0837 68.5461 77.8292 72.8694 75.3292 77.3743C75.1493 77.7453 74.892 78.0736 74.5746 78.3371C74.2481 78.562 73.8753 78.7109 73.4837 78.773C71.6425 79.1523 69.7261 78.8488 68.0926 77.9193C67.1569 77.4731 66.2464 76.9758 65.3653 76.4297C64.9843 76.1616 64.6727 75.8066 64.4562 75.3943C64.2562 74.9674 63.9289 74.5496 64.0652 74.0501C64.1653 73.705 64.3653 73.4052 64.438 73.051C64.5121 72.4979 64.4104 71.9355 64.1471 71.4434C64.0848 71.3376 64.0446 71.2203 64.029 71.0985C64.0134 70.9767 64.0226 70.8531 64.0562 70.735C64.2198 70.3444 64.7653 70.3717 65.1835 70.2718C65.5247 70.1428 65.8343 69.9423 66.0915 69.6838C66.3486 69.4253 66.5474 69.1148 66.6744 68.7731C67.0767 67.961 67.3818 67.1044 67.5835 66.2209C67.7098 65.4582 67.9297 64.7139 68.2381 64.0048C68.8456 63.0308 69.7238 62.2544 70.7654 61.7705C71.4836 61.3527 72.8291 60.617 73.62 61.1074Z" fill="#FDC099"/>
<path d="M75.6474 67.7105L76.0565 67.3563C76.0565 67.3563 76.1746 67.6106 76.3201 67.5833C76.4492 67.5484 76.5742 67.4997 76.6928 67.438C76.6928 67.438 76.4656 67.765 76.311 67.7922C76.0967 67.8195 75.8798 67.8195 75.6655 67.7922L75.6474 67.7105Z" fill="#8A3C1F"/>
<path d="M76.0019 67.3835L76.1746 67.0747C76.1746 67.0747 76.311 67.2019 76.4019 67.1474C76.4717 67.097 76.5357 67.0391 76.5928 66.9748C76.5928 66.9748 76.5383 67.2291 76.4474 67.2836C76.3094 67.3397 76.1663 67.3822 76.0201 67.4108L76.0019 67.3835Z" fill="#8A3C1F"/>
<path d="M95.9751 96.7928H78.9656L64.3834 115.212L80.4293 114.567L95.9751 96.7928Z" fill="#F7F5FA"/>
<path d="M85.8658 111.861C85.8868 111.683 85.9202 111.507 85.9658 111.334C86.1805 110.193 86.1495 109.02 85.8749 107.892C85.5996 106.754 84.9006 105.763 83.9203 105.122C83.846 105.076 83.7667 105.04 83.6839 105.013C83.5535 105.012 83.428 105.062 83.3333 105.152C83.2385 105.241 83.1818 105.364 83.1748 105.494C83.1726 105.755 83.2318 106.013 83.3476 106.248C83.6475 106.995 83.8581 107.776 83.9748 108.573L83.1203 107.601C82.8852 107.282 82.5722 107.029 82.2112 106.865C82.024 106.793 81.816 106.796 81.631 106.874C81.4461 106.952 81.2987 107.099 81.2202 107.283C81.1769 107.508 81.2089 107.741 81.3111 107.946L82.1112 110.262C81.7398 109.521 81.1453 108.914 80.4111 108.528C80.2648 108.728 80.186 108.97 80.186 109.218C80.186 109.466 80.2648 109.708 80.4111 109.908C80.7004 110.324 80.9471 110.769 81.1475 111.234C80.9566 111.009 80.7834 110.769 80.6293 110.517C80.4384 110.29 80.0748 110.144 79.8566 110.344C79.6384 110.544 79.7111 110.825 79.7747 111.071C80.3222 112.807 80.538 114.631 80.4111 116.447L81.4293 116.22C82.2347 115.953 82.9971 115.571 83.693 115.085C84.2715 114.742 84.7664 114.275 85.1422 113.717C85.5179 113.159 85.7651 112.525 85.8658 111.861Z" fill="#EFAC88"/>
<path d="M191.978 110.344C192.287 110.081 192.768 109.881 193.078 110.144C193.173 110.251 193.244 110.376 193.286 110.513C193.328 110.649 193.341 110.793 193.323 110.934V112.56C196.096 111.715 198.187 109.49 200.223 107.438C200.651 107.002 201.278 106.529 201.805 106.838C201.996 106.979 202.138 107.174 202.215 107.398C202.291 107.622 202.297 107.864 202.232 108.092C202.076 108.529 201.969 108.983 201.914 109.445C201.914 110.19 202.451 110.834 202.523 111.57C202.605 112.478 201.987 113.296 201.905 114.204V115.112C201.768 115.666 201.496 116.178 201.114 116.602C200.199 117.981 198.984 119.136 197.56 119.981C196.584 120.405 195.552 120.683 194.496 120.807L191.196 121.37C190.874 121.452 190.536 121.452 190.214 121.37C189.223 121.034 188.914 119.417 188.95 118.527C189.095 117.697 189.404 116.903 189.859 116.193C190.541 114.304 190.332 111.725 191.978 110.344Z" fill="#A67C52"/>
<path d="M94.3206 100.335C94.1024 99.9899 93.7024 99.6629 93.3296 99.8173C93.2074 99.8913 93.1021 99.9903 93.0207 100.108C92.9392 100.225 92.8834 100.358 92.8569 100.499L92.3569 102.043C89.9568 100.417 88.6204 97.6738 87.2931 95.1035C87.0113 94.5585 86.5567 93.9318 85.9567 94.0681C85.7398 94.1502 85.5536 94.2973 85.4235 94.4891C85.2933 94.6809 85.2256 94.9081 85.2294 95.1398C85.2417 95.6022 85.2082 96.0646 85.1294 96.5203C84.9112 97.2288 84.2203 97.692 83.9112 98.3369C83.5657 99.1725 83.9112 100.153 83.7203 101.062C83.6567 101.352 83.5294 101.634 83.4839 101.97C83.4475 102.539 83.557 103.108 83.8021 103.623C84.2599 105.214 85.0744 106.68 86.184 107.91C86.9891 108.601 87.8892 109.173 88.8568 109.608L91.8478 111.125C92.125 111.289 92.4358 111.389 92.7569 111.416C93.8024 111.416 94.5751 109.944 94.8115 109.082C94.9206 108.251 94.8744 107.407 94.6751 106.593C94.5115 104.549 95.466 102.179 94.3206 100.335Z" fill="#A67C52"/>
<path d="M122.721 248.108C122.735 248.181 122.759 248.252 122.794 248.317C123.203 249.371 124.503 249.725 125.63 249.852C126.68 249.976 127.737 250.028 128.794 250.007C129.296 250.019 129.797 249.949 130.276 249.798C130.724 249.605 131.143 249.351 131.521 249.044L134.558 246.791C135.415 246.209 136.194 245.519 136.876 244.739C137.561 243.95 137.919 242.93 137.876 241.887C137.847 241.368 137.656 240.872 137.33 240.468C137.004 240.064 136.559 239.772 136.058 239.634C135.422 239.571 134.78 239.589 134.149 239.689C132.849 239.752 131.031 239.216 130.512 237.872C130.375 237.299 130.057 236.786 129.603 236.41C129.162 236.212 128.67 236.155 128.194 236.246C127.136 236.289 126.09 236.494 125.094 236.855C124.596 237.034 124.144 237.323 123.772 237.7C123.401 238.078 123.119 238.534 122.949 239.035C122.83 239.5 122.784 239.981 122.812 240.461C122.867 241.444 122.867 242.429 122.812 243.413C122.665 244.648 122.595 245.892 122.603 247.136C122.61 247.463 122.65 247.789 122.721 248.108Z" fill="#262836"/>
<path d="M152.231 248.49C150.186 249.425 148.081 250.226 145.931 250.888C145.069 251.259 144.102 251.314 143.204 251.042C142.845 250.863 142.531 250.608 142.283 250.294C142.034 249.98 141.858 249.615 141.767 249.225C141.575 248.457 141.496 247.664 141.531 246.873C141.531 245.556 142.076 244.539 142.285 243.285C142.476 242.196 142.631 241.097 142.785 240.007C143.004 238.444 143.204 236.882 143.404 235.311L148.858 236.483C149.431 236.601 149.977 238.808 150.313 239.271C150.573 239.612 150.905 239.892 151.285 240.092C151.665 240.291 152.084 240.405 152.513 240.424C153.422 240.47 154.395 240.043 155.331 240.197C155.934 240.346 156.472 240.687 156.862 241.169C157.253 241.651 157.475 242.248 157.495 242.868C157.487 243.487 157.352 244.098 157.099 244.664C156.845 245.229 156.479 245.737 156.022 246.156C155.099 246.983 154.046 247.652 152.904 248.136L152.231 248.49Z" fill="#262836"/>
<path d="M152.277 242.395C150.844 243.21 149.355 243.924 147.822 244.53L147.667 244.593C145.14 245.574 142.313 241.614 142.313 241.614C142.313 241.614 138.74 219.562 138.904 210.425C139.013 204.149 137.531 195.202 135.267 178.972C134.703 195.548 131.894 202.832 132.612 208.772C133.703 217.809 132.403 240.252 132.403 240.252C132.403 240.252 130.012 244.621 127.385 244.03H127.23C125.652 243.669 124.102 243.193 122.594 242.604C122.594 242.604 119.539 211.724 119.539 203.549C119.539 195.375 119.876 188.109 119.876 188.109L118.285 162.287L125.094 152.414L125.649 152.178L126.176 151.661L133.722 146.129C133.722 146.129 133.722 147.419 133.585 149.626L139.44 152.769L140.013 153.196L140.585 153.341L150.413 155.057C150.413 155.057 152.995 194.639 153.822 202.741C154.649 210.843 152.277 242.395 152.277 242.395Z" fill="#F7F5FA"/>
<path d="M152.277 242.395C150.844 243.21 149.355 243.924 147.822 244.53L147.667 244.593C145.14 245.574 142.313 241.614 142.313 241.614C142.313 241.614 138.74 219.562 138.904 210.425C139.013 204.149 137.531 195.202 135.267 178.972C134.703 195.548 131.894 202.832 132.612 208.772C133.703 217.809 132.403 240.252 132.403 240.252C132.403 240.252 130.012 244.621 127.385 244.03H127.23C125.652 243.669 124.102 243.193 122.594 242.604C122.594 242.604 119.539 211.724 119.539 203.549C119.539 195.375 119.876 188.109 119.876 188.109L118.285 162.287L125.094 152.414L125.649 152.178L126.176 151.661L133.722 146.129C133.722 146.129 133.722 147.419 133.585 149.626L139.44 152.769L140.013 153.196L140.585 153.341L150.413 155.057C150.413 155.057 152.995 194.639 153.822 202.741C154.649 210.843 152.277 242.395 152.277 242.395Z" fill="url(#paint5_linear)"/>
<path d="M144.131 86.1753C144.749 86.7929 145.676 87.4287 145.422 88.2462C145.285 88.6821 144.822 88.9364 144.513 89.2452C144.069 89.6933 143.719 90.2252 143.483 90.8101C143.247 91.3949 143.131 92.0208 143.14 92.6512C143.178 93.883 143.003 95.1121 142.622 96.2842C142.409 96.8723 142 97.3693 141.464 97.6918C140.927 98.0143 140.296 98.1427 139.676 98.0553C138.958 97.8555 138.24 97.2379 137.549 97.5285C137.022 97.7556 136.858 98.4368 136.585 98.8909C136.193 99.4763 135.644 99.94 135.002 100.229C134.359 100.518 133.647 100.621 132.949 100.526C131.558 100.325 130.217 99.8655 128.994 99.1725C128.471 98.9717 128.019 98.621 127.694 98.1643C127.483 97.7263 127.432 97.2284 127.549 96.7565C127.803 95.3124 128.803 94.1226 129.612 92.8783C131.112 90.5784 132.013 87.94 132.231 85.2035C132.376 83.2962 132.231 81.1981 133.458 79.754C135.122 77.7467 139.14 77.7649 141.204 79.2363C143.576 80.753 142.231 84.2044 144.131 86.1753Z" fill="#A67C52"/>
<path d="M141.667 77.5378C141.423 78.0111 141.056 78.4097 140.604 78.6913C139.694 79.2272 138.913 79.8539 138.031 80.4442C137.197 81.0038 136.611 81.8624 136.394 82.842C136.022 84.6585 137.003 86.5568 136.394 88.2916C136.185 88.6367 135.603 88.4278 135.367 88.0827C135.131 87.7375 135.012 87.3016 134.658 87.0927C134.058 86.7475 133.322 87.3288 133.067 88.0009C132.8 88.7511 132.834 89.5752 133.161 90.3012C133.488 91.0272 134.083 91.599 134.822 91.8973C134.74 92.4514 134.012 92.6784 133.449 92.5967C132.889 92.4429 132.311 92.3695 131.731 92.3787C130.431 92.6239 129.912 94.4768 128.64 94.6675C128.191 94.6353 127.756 94.5017 127.367 94.2767C126.978 94.0517 126.645 93.7412 126.394 93.3687L124.812 91.5522C124.561 91.2283 124.284 90.9246 123.985 90.6439C123.63 90.3624 123.076 90.3442 122.749 90.0082C122.421 89.6721 122.749 88.9001 122.43 88.4823C122.272 88.3377 122.087 88.2265 121.885 88.1553C121.429 87.9263 121.067 87.5474 120.858 87.0826C120.65 86.6177 120.608 86.0953 120.739 85.6031C120.776 85.4786 120.776 85.3462 120.739 85.2217C120.685 85.0582 120.485 84.9764 120.321 84.8947C119.837 84.5918 119.479 84.1247 119.312 83.5791C119.145 83.0336 119.181 82.4462 119.412 81.9247C119.667 81.3176 120.041 80.7678 120.512 80.308C120.686 80.0577 120.926 79.8601 121.205 79.7368C121.484 79.6134 121.791 79.5691 122.094 79.6086L122.339 77.338C122.361 76.8759 122.472 76.4224 122.667 76.0029C123.185 75.0946 124.376 74.8585 125.394 74.7404L124.958 72.8512C124.906 72.7354 124.88 72.6101 124.88 72.4834C124.88 72.3567 124.906 72.2314 124.958 72.1155C125.096 71.9478 125.289 71.8351 125.503 71.7976C126.116 71.6353 126.743 71.5319 127.376 71.4888C127.139 70.9647 126.959 70.4166 126.84 69.854C126.812 69.7467 126.812 69.6343 126.84 69.527C126.894 69.4252 126.977 69.3421 127.08 69.2887C127.182 69.2352 127.298 69.2138 127.412 69.2273C127.643 69.2726 127.881 69.2726 128.112 69.2273C128.112 69.2273 127.767 67.6469 127.749 67.5016C127.694 67.254 127.689 66.998 127.734 66.7484C127.779 66.4989 127.874 66.2609 128.012 66.0484C128.197 65.8286 128.436 65.6603 128.705 65.56C128.974 65.4598 129.265 65.4309 129.549 65.4762C130.114 65.578 130.658 65.7745 131.158 66.0575C131.103 65.4489 131.885 65.1492 132.512 65.0947C133.681 65.0275 134.847 65.2571 135.903 65.7622C136.959 66.2672 137.869 67.0313 138.549 67.983C138.656 68.153 138.784 68.3087 138.931 68.4462C139.21 68.6286 139.517 68.7637 139.84 68.8458C140.331 69.0639 140.767 69.388 141.118 69.7948C141.468 70.2015 141.724 70.6808 141.867 71.1982C142.132 72.2298 142.239 73.2954 142.185 74.3589C142.214 75.1737 142.138 75.9887 141.958 76.784C141.889 77.0451 141.792 77.2979 141.667 77.5378Z" fill="#2F3554"/>
<path d="M133.04 97.1925C134.484 97.8003 135.887 98.5011 137.24 99.2905C137.657 99.5114 138.02 99.8216 138.303 100.199C138.451 100.408 138.541 100.652 138.567 100.906C138.592 101.161 138.552 101.418 138.449 101.652C138.067 102.306 137.213 102.061 136.549 101.834C133.485 100.617 130.185 100.508 127.04 100.517C126.823 100.549 126.602 100.521 126.4 100.436C126.198 100.351 126.023 100.212 125.894 100.035C125.817 99.8245 125.789 99.5992 125.811 99.376C125.833 99.1528 125.905 98.9374 126.021 98.7456C127.685 95.4486 130.358 95.9754 133.04 97.1925Z" fill="white"/>
<path d="M192.459 122.76C191.834 124.321 190.907 125.743 189.732 126.947C188.614 128.209 187.45 129.426 186.241 130.58C183.394 133.341 180.386 135.931 177.232 138.336C174.986 140.071 172.586 141.779 169.786 142.324C168.672 142.587 167.504 142.515 166.431 142.115C165.543 141.66 164.748 141.044 164.086 140.298C163.277 139.499 154.004 128.836 153.849 128.836C153.326 129.117 152.922 129.579 152.713 130.135C151.369 132.902 150.54 135.89 150.267 138.954C150.158 140.326 150.158 141.705 150.267 143.078C150.631 147.737 152.267 152.542 150.649 156.938C150.334 157.872 149.801 158.719 149.095 159.408C148.411 159.999 147.625 160.46 146.776 160.77C145.284 161.388 143.725 161.833 142.131 162.096C141.23 162.26 140.319 162.36 139.404 162.396C136.013 162.523 132.631 161.86 129.24 162.033C126.349 162.178 123.494 162.941 120.603 162.823C120.071 162.865 119.536 162.788 119.036 162.6C118.536 162.412 118.084 162.116 117.712 161.733C117.385 161.231 117.182 160.658 117.121 160.062C115.994 153.888 115.412 147.627 115.385 141.352C115.385 138.455 114.912 127.864 113.939 125.912C113.821 125.675 113.694 125.557 113.567 125.594C110.33 126.502 103.384 128.318 100.093 128.9C99.6174 129.015 99.124 129.039 98.6389 128.972C98.1393 128.845 97.6738 128.609 97.2752 128.282C93.2024 125.294 90.9114 120.843 89.4659 116.157C89.1841 115.249 88.9295 114.34 88.6932 113.432C88.5694 113.19 88.4948 112.926 88.4735 112.655C88.4522 112.384 88.4848 112.112 88.5693 111.854C88.6538 111.595 88.7885 111.356 88.9658 111.15C89.1431 110.944 89.3594 110.775 89.6023 110.653C89.6571 110.62 89.715 110.593 89.775 110.571L95.8752 106.647L100.421 112.442C101.33 113.568 102.366 114.785 103.812 114.949C105.794 115.149 107.285 113.35 108.503 111.815C112.452 106.859 117.517 102.903 123.285 100.271C124.131 99.8652 125.022 99.5603 125.94 99.3632L126.167 99.3087C126.298 99.2719 126.432 99.2446 126.567 99.227C127.752 99.1192 128.948 99.1896 130.112 99.4359C137.854 100.742 145.513 102.498 153.049 104.695C153.951 104.829 154.809 105.174 155.553 105.701C156.297 106.228 156.906 106.922 157.331 107.728C159.449 110.916 161.513 114.141 163.64 117.329C165.459 120.053 167.277 123.505 170.004 125.503C175.903 123.115 181.47 119.98 186.568 116.175C187.287 115.639 188.196 115.058 189.023 115.412C189.288 115.542 189.525 115.721 189.723 115.939C191.678 117.892 193.441 119.799 192.459 122.76Z" fill="white"/>
<path d="M236.579 101.407C235.77 102.096 234.795 102.562 233.751 102.76C232.797 102.798 231.845 102.631 230.96 102.27L217.433 97.7283C216.413 98.5224 215.731 99.6728 215.526 100.948C215.32 102.224 215.605 103.53 216.324 104.604C217.469 106.193 219.442 106.947 221.287 107.61L230.56 110.943C232.383 111.695 234.301 112.187 236.261 112.406C238.988 112.587 241.652 111.715 244.243 110.853C247.015 109.944 250.052 108.791 251.379 106.184C252.706 103.578 251.743 100.144 252.134 97.1016C252.397 95.1216 253.27 93.2234 253.234 91.2252C253.188 89.5177 251.825 86.9473 249.788 87.3016C248.034 87.6104 246.861 90.6621 245.934 91.9428C243.323 95.5614 240.168 98.754 236.579 101.407Z" fill="white"/>
<path d="M215.742 96.9926C215.592 96.6322 215.376 96.3027 215.105 96.0208C214.966 95.8829 214.79 95.7881 214.598 95.7478C214.406 95.7075 214.207 95.7235 214.024 95.7938C213.846 95.904 213.703 96.0622 213.611 96.2503C213.519 96.4383 213.483 96.6485 213.505 96.8564C213.524 96.9991 213.492 97.1439 213.414 97.2651C213.355 97.3088 213.286 97.3367 213.212 97.3462C213.139 97.3557 213.065 97.3466 212.996 97.3196C211.46 97.0199 209.905 96.7928 208.342 96.6384C208.212 96.6203 208.08 96.6203 207.951 96.6384C207.696 96.7276 207.485 96.9111 207.361 97.1511C207.238 97.391 207.211 97.6692 207.287 97.9282C207.458 98.442 207.713 98.9239 208.042 99.3541C208.833 100.653 209.133 102.37 210.405 103.214C211.181 103.661 212.079 103.849 212.969 103.75C213.878 103.705 214.742 103.541 215.633 103.578C216.226 103.706 216.845 103.639 217.396 103.387C217.601 103.232 217.764 103.029 217.87 102.796C217.976 102.563 218.023 102.307 218.006 102.052C217.914 101.248 217.623 100.48 217.16 99.8173C216.669 98.8909 216.196 97.9463 215.742 96.9926Z" fill="#FDB9A9"/>
<path d="M253.47 198.745C248.288 197.573 249.306 204.921 247.943 207.645C247.081 209.023 246 210.25 244.743 211.278C243.57 212.423 242.47 213.822 242.406 215.447C242.37 215.762 242.433 216.079 242.588 216.356C242.851 216.672 243.213 216.889 243.615 216.973C246.579 217.826 249.759 217.501 252.488 216.065C253.767 215.454 254.829 214.468 255.534 213.24C256.101 211.923 256.368 210.496 256.316 209.062C256.434 206.047 257.788 199.707 253.47 198.745Z" fill="#FDB9A9"/>
<path d="M248.888 213.858C248.888 213.858 234.142 214.485 240.388 219.117C246.634 223.749 255.952 217.981 256.861 216.928C257.77 215.874 257.034 214.067 257.034 214.067L248.888 213.858Z" fill="#F7F5FA"/>
<path d="M256.225 215.892C254.906 217.491 247.979 219.644 244.915 219.426C241.852 219.208 239.097 217.773 239.397 215.793C239.697 213.813 245.115 209.208 246.134 209.217C247.152 209.226 247.952 211.587 250.006 212.078C250.924 212.225 251.865 212.135 252.738 211.817C253.612 211.5 254.389 210.964 254.997 210.261C255.183 210.007 255.451 209.824 255.756 209.745C256.061 209.665 256.384 209.694 256.67 209.825C257.379 210.87 257.543 214.294 256.225 215.892Z" fill="white"/>
<path d="M271.243 201.642C266.061 200.443 267.079 207.782 265.716 210.506C264.863 211.903 263.781 213.147 262.516 214.185C261.343 215.329 260.252 216.728 260.188 218.354C260.148 218.667 260.209 218.985 260.361 219.262C260.623 219.584 260.99 219.803 261.398 219.88C264.359 220.728 267.534 220.403 270.261 218.971C271.54 218.36 272.602 217.375 273.307 216.147C273.874 214.829 274.141 213.402 274.089 211.969C274.207 208.908 275.562 202.55 271.243 201.642Z" fill="#FDB9A9"/>
<path d="M266.661 216.692C266.661 216.692 251.915 217.309 258.161 221.941C264.407 226.574 273.734 220.824 274.634 219.762C275.534 218.699 274.807 216.892 274.807 216.892L266.661 216.692Z" fill="#F7F5FA"/>
<path d="M273.998 218.69C272.68 220.307 265.752 222.45 262.688 222.232C259.625 222.014 256.87 220.588 257.17 218.599C257.47 216.61 262.888 212.005 263.907 212.014C264.925 212.023 265.725 214.385 267.78 214.866C268.697 215.013 269.638 214.924 270.511 214.606C271.385 214.288 272.163 213.752 272.771 213.05C272.956 212.795 273.224 212.612 273.529 212.533C273.834 212.453 274.157 212.482 274.443 212.614C275.152 213.694 275.316 217.082 273.998 218.69Z" fill="white"/>
<path d="M257.888 134.831L264.816 207.664L274.816 206.428C278.762 188.663 277.798 135.485 277.798 135.485L257.888 134.831Z" fill="#473F47"/>
<path d="M264.816 132.86L257.888 205.693L247.888 204.457C242.179 158.373 246.879 129.681 246.879 129.681L264.816 132.86Z" fill="#473F47"/>
<path d="M247.752 106.52C247.634 105.185 247.279 103.859 247.134 102.497C246.808 99.7475 246.86 96.9667 247.288 94.2316C247.758 91.3195 248.636 88.4882 249.897 85.8211C251.052 83.5141 253.134 82.5332 255.47 81.3797C257.428 80.3185 259.552 79.5968 261.752 79.2453C263.308 79.1025 264.876 79.1882 266.407 79.4997C271.107 80.4079 277.316 82.8239 280.525 86.5295C282.944 89.3179 283.253 93.3051 283.307 96.9927C283.41 102.085 283.304 107.171 282.989 112.251C282.989 112.987 282.898 113.723 282.844 114.458C282.407 120.035 281.934 125.821 280.362 131.207C279.862 132.896 279.334 134.594 277.771 135.503C274.134 137.646 268.452 136.465 264.479 135.911C259.197 135.158 253.779 134.376 249.097 131.824C248.124 131.396 247.335 130.636 246.87 129.681C246.461 128.536 246.961 127.292 247.315 126.13C248.897 120.925 247.67 115.458 247.67 110.144C247.67 109.181 247.797 108.201 247.797 107.238C247.788 107.002 247.752 106.756 247.752 106.52Z" fill="white"/>
<path opacity="0.1" d="M262.516 130.971C262.48 130.413 262.616 129.858 262.907 129.381C263.507 128.645 264.652 128.8 265.57 129.027L271.507 130.498C273.752 131.052 277.198 133.223 277.78 135.485C280.062 133.886 280.653 131.198 281.08 128.446C281.507 125.694 281.525 120.326 281.989 117.546C279.086 119.633 275.627 120.81 272.052 120.925C268.68 121.016 264.443 120.925 263.216 117.292C261.807 113.042 261.316 108.582 260.379 104.222C260.382 104.122 260.361 104.022 260.319 103.93C260.277 103.838 260.215 103.757 260.137 103.694C260.059 103.63 259.967 103.584 259.869 103.561C259.771 103.538 259.669 103.537 259.57 103.559L246.752 103.696C246.552 103.686 246.353 103.723 246.17 103.805C245.797 104.032 245.797 104.568 245.861 104.994C246.337 107.888 247.791 110.532 249.979 112.487C251.025 113.396 251.706 113.995 251.906 115.349C252.152 116.947 252.088 118.645 252.252 120.271C252.532 123.688 253.282 127.05 254.479 130.262C256.316 134.831 262.17 138.4 262.516 130.971Z" fill="#020202"/>
<path d="M259.016 134.667H239.933L237.561 105.022H256.652L259.016 134.667Z" fill="#F7F5FA"/>
<path d="M257.907 71.9339C257.917 70.5344 258.005 69.1365 258.17 67.7468C258.297 66.5388 258.488 65.3218 258.725 64.1138C258.737 63.7636 258.825 63.4201 258.981 63.1067C259.138 62.7933 259.361 62.5172 259.634 62.2973C261.506 61.1429 263.671 60.5503 265.87 60.5897C267.184 60.3832 268.527 60.7063 269.602 61.488C270.678 62.2697 271.399 63.4461 271.607 64.7586C271.651 65.0167 271.672 65.278 271.671 65.5397C271.998 68.6006 271.207 71.6523 270.761 74.695C270.415 77.0517 270.29 79.4357 270.389 81.8157C269.236 82.5811 267.912 83.0492 266.534 83.1781C265.89 83.1773 265.251 83.0699 264.643 82.8602C264.472 82.8285 264.31 82.7631 264.165 82.668C264.019 82.5729 263.895 82.4499 263.798 82.3062C263.704 82.0536 263.682 81.7802 263.734 81.516C263.769 81.2691 263.79 81.0204 263.798 80.7712C263.898 79.379 263.87 77.9805 263.716 76.5932C263.72 76.5349 263.712 76.4763 263.691 76.4214C263.671 76.3666 263.639 76.3168 263.598 76.2753C263.503 76.2481 263.402 76.2481 263.307 76.2753H262.916C262.223 76.3298 261.527 76.3298 260.834 76.2753C260.004 76.1847 259.234 75.8015 258.661 75.1945C258.003 74.2432 257.733 73.0771 257.907 71.9339Z" fill="#FDB9A9"/>
<path d="M260.734 62.9603C260.251 63.1601 259.708 63.1601 259.225 62.9603C258.718 62.6894 258.298 62.2799 258.016 61.7796C257.448 60.9265 257.241 59.8841 257.438 58.879C257.635 57.8739 258.222 56.9872 259.07 56.4118C259.724 55.9521 260.462 55.627 261.242 55.4555C262.023 55.2839 262.83 55.2694 263.616 55.4127C264.03 55.1493 264.494 54.976 264.979 54.9041C266.855 54.3335 268.839 54.2122 270.771 54.5498C271.866 54.8679 272.895 55.3818 273.807 56.0666C274.691 56.6499 275.443 57.4108 276.016 58.3009C276.569 59.4424 276.917 60.6721 277.043 61.934C277.339 63.2831 277.501 64.6583 277.525 66.0393C277.523 66.6423 277.409 67.2397 277.189 67.8013C276.915 68.422 276.523 68.9835 276.034 69.4543C275.317 70.1737 274.5 70.7856 273.607 71.2708C272.989 71.616 272.271 71.9702 272.061 72.6514C271.999 72.9685 271.969 73.291 271.971 73.6141C271.934 74.0893 271.743 74.5393 271.425 74.8948C271.207 75.1309 270.834 75.7031 270.516 75.803C270.198 75.9029 269.925 75.5033 269.834 75.1763C269.445 73.7995 269.541 72.3309 270.107 71.0165C270.508 70.3758 270.742 69.6453 270.789 68.8912C270.716 68.1555 269.707 67.5652 269.225 67.9829C268.743 68.4007 268.652 69.4907 268.052 69.2818C268.734 67.1564 267.852 64.4862 265.807 63.6506C264.713 63.321 263.576 63.1617 262.434 63.1783C261.889 63.068 261.335 63.0072 260.779 62.9966L260.734 62.9603Z" fill="#DD8049"/>
<path d="M262.934 76.2208C264.55 75.9155 266.131 75.4469 267.652 74.8221C267.789 79.7358 263.788 80.753 263.788 80.753C263.888 79.3608 263.861 77.9623 263.707 76.5751C263.711 76.4577 263.668 76.3434 263.588 76.2572C263.493 76.2299 263.393 76.2299 263.298 76.2572H262.934V76.2208Z" fill="#DE9F93"/>
<path d="M286.571 103.995L288.844 113.932C289.079 114.758 289.18 115.616 289.144 116.475C288.98 118.082 287.88 119.408 286.825 120.625C285.528 122.343 283.899 123.782 282.034 124.858C280.741 125.429 279.367 125.796 277.962 125.948C274.247 126.51 270.488 126.72 266.734 126.575C266.437 126.582 266.142 126.523 265.87 126.402C265.6 126.228 265.375 125.991 265.216 125.712C263.902 123.73 262.773 121.632 261.843 119.445C264.851 117.421 268.153 115.874 271.634 114.858C272.336 114.727 272.992 114.414 273.534 113.95C273.888 113.507 274.122 112.982 274.216 112.424C275.698 106.066 272.28 98.9818 275.016 93.0508C276.571 89.6721 279.889 86.0482 282.289 90.5622C284.553 94.6766 285.534 99.4722 286.571 103.995Z" fill="white"/>
<path d="M259.234 119.517C258.824 119.209 258.389 118.936 257.934 118.7C257.703 118.585 257.447 118.53 257.189 118.541C256.931 118.552 256.681 118.629 256.461 118.764C256.261 118.909 256.106 119.145 255.861 119.227C255.699 119.263 255.532 119.263 255.37 119.227L252.334 118.918C252.094 118.859 251.843 118.856 251.602 118.909C251.361 118.963 251.135 119.071 250.943 119.227C250.552 119.672 250.788 120.371 251.052 120.907C251.831 122.487 252.699 124.021 253.652 125.503C253.825 125.806 254.043 126.081 254.297 126.32C254.647 126.584 255.051 126.767 255.479 126.856C257.044 127.218 258.678 127.149 260.207 126.656C261.725 126.159 263.141 125.393 264.389 124.395C264.567 124.263 264.724 124.104 264.852 123.922C264.978 123.699 265.052 123.451 265.07 123.196C265.216 122.024 264.843 120.135 263.316 120.217C261.915 120.463 260.472 120.216 259.234 119.517Z" fill="#FDB9A9"/>
<path d="M67.6835 202.232C67.7462 202.131 67.8382 202.052 67.9472 202.005C68.2017 201.923 68.4381 202.151 68.6108 202.35C70.1836 204.167 72.5382 205.075 74.7928 205.893C74.9292 205.938 75.1019 205.983 75.211 205.893C75.3201 205.802 75.3201 205.702 75.3655 205.611C75.4488 205.498 75.5685 205.418 75.7043 205.383C75.8401 205.348 75.9838 205.361 76.111 205.42C76.3584 205.553 76.5826 205.724 76.7747 205.929C77.6838 206.764 78.9838 207.101 79.9838 207.845C80.2499 208.009 80.452 208.259 80.5566 208.554C80.5908 208.716 80.5838 208.884 80.5361 209.043C80.4885 209.201 80.4017 209.345 80.2838 209.462C80.0356 209.708 79.7186 209.872 79.3747 209.934C78.7497 210.063 78.1077 210.087 77.4747 210.007C74.3291 209.771 71.1957 209.438 68.0745 209.008C67.8309 208.991 67.593 208.926 67.3744 208.817C67.1339 208.623 66.9467 208.372 66.8306 208.086C66.7145 207.8 66.6733 207.489 66.7108 207.182C66.7458 206.371 66.84 205.564 66.9926 204.766C66.9734 203.873 67.2133 202.993 67.6835 202.232Z" fill="#262836"/>
<path d="M58.7924 207.873C59.153 208.082 59.5516 208.218 59.9652 208.272C60.6791 208.449 61.4218 208.477 62.147 208.354C62.5079 208.287 62.8419 208.118 63.1094 207.866C63.3769 207.615 63.5667 207.293 63.6562 206.937C63.6562 206.719 63.8198 206.41 64.0107 206.51C64.0533 206.541 64.0876 206.581 64.1107 206.628C64.6129 207.601 64.8806 208.677 64.8926 209.771C64.9944 210.355 64.9443 210.955 64.7471 211.515C64.5876 211.823 64.3596 212.09 64.0807 212.296C63.8018 212.502 63.4793 212.642 63.138 212.704C62.4621 212.832 61.7684 212.832 61.0925 212.704C60.5106 212.614 59.9379 212.505 59.3742 212.359C59.1226 212.324 58.8845 212.224 58.6833 212.069C58.5134 211.906 58.3829 211.708 58.3015 211.487C57.8374 210.406 57.665 209.223 57.8015 208.054C57.8262 207.806 57.8687 207.56 57.9287 207.319C57.9287 207.21 58.0015 206.728 58.156 206.783C58.3106 206.837 58.2742 206.901 58.2742 207.01C58.277 207.124 58.2985 207.238 58.3378 207.346C58.4348 207.562 58.5928 207.745 58.7924 207.873Z" fill="#262836"/>
<path d="M159.013 52.4427C158.861 51.7634 158.975 51.0517 159.331 50.4536C159.628 50.1089 160.015 49.854 160.45 49.7179C160.902 49.547 161.371 49.4252 161.85 49.3546C162.088 49.3335 162.319 49.2656 162.531 49.1548C162.703 49.0094 162.85 48.8377 162.968 48.6462C163.321 48.2567 163.761 47.9558 164.252 47.768C164.743 47.5802 165.272 47.5108 165.795 47.5654C166.841 47.5654 167.868 47.8742 168.913 47.9196C169.959 47.965 171.223 47.7743 172.168 48.3555C172.891 48.8961 173.387 49.6861 173.559 50.5717C173.926 50.52 174.299 50.6075 174.604 50.8169C175.177 51.3437 174.604 52.4154 175.104 53.0421C175.341 53.3419 175.759 53.469 176.014 53.7869C176.176 54.0899 176.225 54.4413 176.15 54.7769C176.126 55.1466 176.074 55.5139 175.995 55.8759C175.741 56.875 175.086 57.6924 174.777 58.7006C174.623 59.2274 174.586 59.7814 174.459 60.3082C174.103 61.4751 173.533 62.5655 172.777 63.5234C173.302 61.1351 173.361 58.6679 172.95 56.2574C172.958 56.1463 172.932 56.0353 172.875 55.9395C172.818 55.8437 172.733 55.7676 172.632 55.7215C172.486 55.6871 172.333 55.7099 172.204 55.7851C169.784 56.7405 167.111 56.8462 164.622 56.0848C163.915 55.7704 163.138 55.6452 162.368 55.7215C162.058 55.814 161.754 55.9263 161.459 56.0576C161.148 56.1756 160.805 56.1756 160.495 56.0576C160.431 56.1909 160.397 56.3366 160.395 56.4844C159.804 56.3482 159.84 55.4944 159.677 55.0221C159.374 54.1854 159.152 53.3217 159.013 52.4427Z" fill="#2F3554"/>
<path d="M174.713 61.0984C174.775 61.1913 174.816 61.2968 174.832 61.4072C174.957 62.0311 174.843 62.6793 174.513 63.2237C174.193 63.7748 173.715 64.2176 173.141 64.4953C172.992 64.5815 172.826 64.6343 172.655 64.6499C172.484 64.6656 172.312 64.6438 172.15 64.5861C171.992 64.478 171.861 64.3348 171.768 64.1678C171.675 64.0007 171.622 63.8143 171.613 63.6233C171.527 63.2362 171.526 62.8349 171.611 62.4474C171.696 62.06 171.864 61.6956 172.104 61.3799C172.311 61.172 172.558 61.0084 172.83 60.8991C173.102 60.7897 173.393 60.737 173.686 60.7442C173.873 60.725 174.062 60.7468 174.239 60.808C174.416 60.8692 174.578 60.9683 174.713 61.0984Z" fill="#FDB9A9"/>
<path d="M165.677 69.7268C165.722 70.0992 165.431 70.4262 165.395 70.7985C165.359 71.1709 165.395 71.616 165.395 72.0247C165.376 72.5409 165.206 73.0401 164.904 73.4597C164.543 73.824 164.086 74.079 163.586 74.1954C162.562 74.5779 161.479 74.7747 160.386 74.7767C159.934 74.7511 159.484 74.6934 159.04 74.6041C158.322 74.4861 156.459 74.5496 156.313 73.5687C156.357 73.0307 156.505 72.5064 156.749 72.0247C156.831 71.7613 156.904 71.4979 156.977 71.2345C157.049 70.9711 157.149 70.5806 157.222 70.2536C157.568 68.6914 157.804 66.9475 159.04 65.8849C159.349 65.6033 159.868 65.4035 160.15 65.7123C160.431 66.0211 160.331 66.4662 160.659 66.5479C160.773 66.5573 160.889 66.5386 160.995 66.4934C162.211 65.9413 163.544 65.6949 164.877 65.7759C165.127 65.7892 165.37 65.8653 165.583 65.997C165.795 66.1288 165.972 66.312 166.095 66.5297C166.45 67.438 165.286 68.3463 165.568 69.2545C165.622 69.4072 165.659 69.5657 165.677 69.7268Z" fill="#FDB9A9"/>
<path d="M162.986 104.64C162.742 104.395 162.474 104.176 162.186 103.986C162.368 107.356 162.922 110.88 164.986 113.55C165.524 114.162 166.025 114.805 166.486 115.476C167.395 117.002 167.468 118.982 168.632 120.326C169.654 121.305 170.957 121.94 172.359 122.142C173.581 122.568 174.919 122.516 176.104 121.997C177.047 121.29 177.744 120.305 178.095 119.181C178.886 117.301 180.341 114.586 179.141 112.551C178.286 111.107 175.595 109.963 173.959 109.963C171.712 109.392 169.517 108.635 167.395 107.701C166.334 107.337 165.339 106.803 164.45 106.121C163.922 105.676 163.486 105.122 162.986 104.64Z" fill="white"/>
<path opacity="0.1" d="M114.785 118.555C114.149 120.611 113.875 122.762 113.976 124.912C113.979 125.239 113.945 125.565 113.876 125.884C113.757 125.648 113.63 125.53 113.503 125.566C110.266 126.475 103.321 128.291 100.03 128.872C99.5537 128.987 99.0604 129.012 98.5752 128.945C98.0756 128.817 97.6101 128.582 97.2115 128.255C93.1387 125.267 90.8478 120.816 89.4023 116.13C89.5042 115.318 89.6838 114.518 89.9386 113.741C91.8751 114.785 92.8842 116.929 94.0933 118.773C95.2583 120.565 96.6934 122.168 98.3479 123.523C98.6767 123.827 99.0675 124.056 99.4934 124.195C99.9976 124.292 100.517 124.27 101.012 124.131C105.957 123.196 111.194 122.07 114.785 118.555Z" fill="#020202"/>
<path opacity="0.1" d="M186.241 130.598C183.394 133.359 180.386 135.949 177.232 138.355C174.986 140.089 172.586 141.797 169.786 142.342C168.672 142.606 167.504 142.533 166.431 142.133C165.543 141.679 164.748 141.062 164.086 140.316C163.277 139.517 154.004 128.854 153.849 128.854C153.326 129.135 152.922 129.597 152.713 130.153C151.369 132.92 150.54 135.909 150.267 138.972C150.158 140.345 150.158 141.723 150.267 143.096C150.631 147.755 152.267 152.56 150.649 156.956C150.334 157.89 149.801 158.737 149.095 159.426C148.408 160.008 147.623 160.463 146.776 160.77C144.949 161.495 143.083 162.117 141.185 162.632C140.266 162.907 139.295 162.966 138.349 162.805C137.803 162.696 136.431 161.724 136.049 161.769C137.437 161.569 138.741 160.987 139.816 160.086C140.89 159.186 141.692 158.005 142.131 156.674C142.776 154.576 142.458 152.324 142.467 150.126C142.547 147.576 142.851 145.038 143.376 142.542L145.322 131.906C145.976 128.273 147.304 123.114 151.086 121.479C151.84 121.152 152.667 121.688 153.322 122.197C157.704 125.63 162.168 129.145 165.313 133.75C166.222 135.03 167.05 136.475 168.486 137.056C169.922 137.637 171.804 137.119 173.359 136.493C175.678 135.558 177.934 134.475 180.114 133.25C181.75 132.342 183.914 130.28 185.95 130.525C186.049 130.54 186.147 130.564 186.241 130.598Z" fill="#020202"/>
</g>
<defs>
<linearGradient id="paint0_linear" x1="128.994" y1="189.353" x2="128.994" y2="270.161" gradientUnits="userSpaceOnUse">
<stop offset="0.01"/>
<stop offset="0.08" stop-opacity="0.69"/>
<stop offset="0.21" stop-opacity="0.32"/>
<stop offset="1" stop-opacity="0"/>
</linearGradient>
<linearGradient id="paint1_linear" x1="22745.8" y1="2900.95" x2="22840.7" y2="745.232" gradientUnits="userSpaceOnUse">
<stop offset="0.01"/>
<stop offset="0.08" stop-opacity="0.69"/>
<stop offset="0.21" stop-opacity="0.32"/>
<stop offset="1" stop-opacity="0"/>
</linearGradient>
<linearGradient id="paint2_linear" x1="4780.03" y1="3160.09" x2="4875.16" y2="1001.68" gradientUnits="userSpaceOnUse">
<stop offset="0.01"/>
<stop offset="0.08" stop-opacity="0.69"/>
<stop offset="0.21" stop-opacity="0.32"/>
<stop offset="1" stop-opacity="0"/>
</linearGradient>
<linearGradient id="paint3_linear" x1="-157713" y1="-3596" x2="-157776" y2="202.481" gradientUnits="userSpaceOnUse">
<stop offset="0.01"/>
<stop offset="0.08" stop-opacity="0.69"/>
<stop offset="0.21" stop-opacity="0.32"/>
<stop offset="1" stop-opacity="0"/>
</linearGradient>
<linearGradient id="paint4_linear" x1="1756.85" y1="6675.54" x2="3447.36" y2="6760.11" gradientUnits="userSpaceOnUse">
<stop offset="0.01"/>
<stop offset="0.08" stop-opacity="0.69"/>
<stop offset="0.21" stop-opacity="0.32"/>
<stop offset="1" stop-opacity="0"/>
</linearGradient>
<linearGradient id="paint5_linear" x1="4405.55" y1="13855.3" x2="12456.4" y2="9773.57" gradientUnits="userSpaceOnUse">
<stop offset="0.01"/>
<stop offset="0.08" stop-opacity="0.69"/>
<stop offset="0.21" stop-opacity="0.32"/>
<stop offset="1" stop-opacity="0"/>
</linearGradient>
<clipPath id="clip0">
<rect width="360" height="267" fill="white"/>
</clipPath>
</defs>
</svg>
